<svg version="1.0" xmlns="http://www.w3.org/2000/svg" width="490.000000pt" height="784.000000pt" viewBox="-3 -3 496 790" preserveAspectRatio="xMidYMid meet"><g id="deeditor_bgCarrier" stroke-width="0">
    <rect id="dee_c_e" x="-3" y="-3" width="496" height="790" rx="0" fill="#e37c7a" strokewidth="0"/>
  </g>

<g transform="translate(0.000000,784.000000) scale(0.100000,-0.100000)" fill="#bdf0e6" stroke="none">
<path d="M0 5590 c0 -1935 2 -2250 14 -2250 8 0 16 6 18 12 3 9 13 3 29 -14 26 -29 91 -68 114 -68 8 0 15 -8 15 -17 1 -30 33 -60 72 -66 30 -5 38 -2 43 13 3 11 15 22 25 25 10 3 22 14 25 24 7 24 49 43 63 29 8 -8 13 -7 18 6 4 10 13 14 23 11 11 -3 25 5 39 25 21 28 22 30 3 39 -22 12 -26 81 -5 81 9 0 9 9 0 41 -8 26 -10 59 -5 88 8 50 -6 134 -28 166 -8 12 -13 51 -13 105 0 85 0 85 -35 115 -19 17 -35 35 -35 41 0 6 -12 33 -26 60 -22 41 -25 58 -22 109 3 36 0 75 -9 99 -18 52 -17 67 6 73 11 3 21 13 24 22 2 10 22 22 47 30 23 7 48 15 55 17 7 3 15 -5 19 -20 3 -14 15 -30 26 -36 11 -6 20 -17 20 -24 0 -7 9 -21 21 -32 22 -20 45 -65 64 -124 7 -24 17 -36 33 -38 15 -2 22 -10 22 -24 0 -12 11 -35 23 -52 13 -17 30 -54 36 -83 10 -41 23 -61 57 -93 42 -39 44 -42 39 -88 -4 -31 1 -65 13 -102 19 -54 20 -55 58 -56 37 0 38 -1 65 -67 15 -37 29 -77 31 -89 3 -24 10 -25 76 -12 40 8 48 24 31 56 -7 13 -13 26 -12 29 1 3 4 27 8 53 8 70 21 89 55 83 28 -6 60 16 60 40 0 6 5 13 11 15 6 2 12 32 13 70 1 78 11 93 49 79 31 -12 36 -48 14 -91 -11 -23 -10 -27 14 -48 31 -26 47 -78 30 -95 -18 -18 -65 -15 -79 5 -7 10 -24 18 -38 18 -19 0 -24 -5 -24 -24 0 -14 -5 -28 -10 -31 -6 -3 -10 -18 -10 -32 0 -14 -13 -47 -29 -73 -16 -27 -27 -51 -24 -54 11 -11 23 -6 23 9 0 9 7 18 15 21 8 4 15 13 15 21 0 11 7 14 25 11 16 -3 39 5 67 23 24 16 55 29 70 29 45 0 149 -37 165 -59 8 -12 18 -19 23 -16 17 10 39 -8 51 -42 14 -43 6 -54 -11 -13 -14 33 -34 39 -44 13 -5 -13 -12 -9 -33 22 -28 41 -46 32 -22 -11 19 -36 4 -40 -47 -15 -25 13 -48 20 -51 17 -4 -3 -2 -22 4 -41 9 -27 8 -35 -1 -35 -7 0 -18 -11 -24 -24 -8 -19 -7 -31 10 -62 16 -30 18 -42 8 -62 -10 -23 -15 -24 -63 -20 -60 6 -77 2 -77 -18 0 -17 57 -47 76 -40 8 3 17 -1 20 -9 4 -8 10 -12 16 -9 10 6 109 12 103 6 -2 -2 4 -11 13 -21 9 -9 26 -29 37 -44 11 -15 28 -30 37 -33 9 -3 22 -21 28 -40 9 -26 29 -46 86 -85 41 -27 85 -66 99 -87 13 -20 34 -49 45 -64 33 -42 9 -33 -46 17 -44 40 -74 56 -74 39 0 -22 49 -84 88 -114 85 -63 120 -112 103 -144 -10 -18 -4 -37 44 -133 47 -97 55 -120 55 -170 0 -34 10 -87 25 -133 26 -77 65 -267 56 -275 -13 -13 -43 66 -53 138 -6 50 -18 93 -30 110 -22 31 -38 27 -38 -9 0 -48 -18 -13 -25 48 -8 70 -28 118 -49 118 -8 0 -20 19 -28 42 -8 26 -20 44 -30 46 -15 3 -18 -5 -19 -45 l-1 -48 -15 50 c-26 92 -44 133 -60 139 -26 10 -27 0 -5 -66 11 -35 18 -65 16 -67 -2 -3 -20 3 -39 12 -26 12 -35 13 -35 4 0 -17 28 -56 67 -92 18 -16 33 -35 33 -42 0 -7 9 -17 19 -23 19 -10 48 -76 38 -86 -3 -3 -32 5 -66 19 -33 13 -62 22 -65 20 -16 -17 30 -53 104 -83 60 -24 84 -62 25 -40 -20 7 -31 8 -39 0 -14 -14 2 -28 92 -76 62 -32 82 -48 101 -83 13 -23 21 -45 18 -48 -8 -8 -74 35 -81 52 -9 24 -26 17 -26 -9 0 -28 34 -66 110 -124 30 -22 65 -49 77 -59 18 -14 73 -141 73 -167 0 -3 -9 -6 -20 -6 -27 0 -26 -31 1 -80 l21 -38 -21 -21 c-26 -26 -27 -45 -1 -71 25 -25 37 -25 43 -2 3 9 5 -2 6 -25 0 -23 10 -57 21 -76 21 -36 58 -203 47 -214 -14 -13 -25 13 -42 97 -24 125 -33 150 -56 150 -15 0 -19 -7 -19 -39 0 -79 -25 -52 -46 49 -7 39 -49 110 -64 110 -9 0 -14 -22 -11 -42 0 -5 -2 -8 -6 -8 -5 0 -21 27 -36 61 -17 37 -37 63 -51 68 -12 5 -30 27 -40 49 -12 27 -26 42 -40 44 -12 2 -27 17 -37 38 -9 19 -23 35 -30 35 -23 0 -22 -52 1 -85 l21 -30 -27 -10 c-23 -9 -31 -7 -51 11 -12 13 -23 30 -23 40 0 17 -35 49 -53 49 -5 0 -6 -12 -3 -26 5 -19 2 -30 -11 -40 -17 -13 -16 -16 19 -47 23 -21 37 -43 40 -62 2 -25 12 -34 53 -54 28 -13 44 -26 37 -28 -36 -13 7 -92 52 -94 17 -1 18 -2 3 -6 -9 -2 -15 -9 -12 -14 4 -5 -1 -9 -10 -9 -11 0 -15 -5 -11 -15 3 -8 2 -14 -2 -13 -4 2 -21 -12 -39 -30 -26 -27 -36 -31 -62 -26 -28 6 -31 4 -31 -17 0 -30 -9 -43 -37 -58 -13 -6 -23 -18 -23 -25 0 -8 -7 -19 -15 -26 -8 -7 -20 -30 -25 -51 -6 -21 -20 -44 -31 -50 -16 -8 -18 -13 -8 -25 8 -10 8 -14 0 -14 -19 0 -12 -32 9 -37 17 -5 19 -13 17 -72 l-2 -66 35 -4 c48 -4 231 39 256 61 11 10 24 18 30 18 5 0 14 10 21 23 77 151 100 202 97 212 -10 24 19 34 68 24 36 -8 56 -21 88 -55 57 -62 40 -75 -25 -19 -29 25 -56 45 -59 45 -3 0 -6 -12 -6 -28 0 -37 63 -114 120 -146 66 -37 107 -78 120 -123 17 -57 11 -86 -20 -88 -84 -5 -150 -33 -150 -64 0 -15 51 -94 67 -104 16 -10 17 -77 2 -77 -5 0 -16 15 -24 33 -16 38 -73 107 -89 107 -6 1 -23 19 -38 40 -17 24 -36 40 -48 40 -12 0 -29 15 -46 41 -27 43 -30 43 -48 7 -6 -13 -22 -24 -34 -26 -32 -5 -27 -19 13 -38 19 -9 35 -23 35 -30 0 -22 -48 -17 -62 6 -14 23 -58 27 -58 6 0 -17 63 -66 84 -66 24 0 19 -27 -6 -34 -23 -6 -23 -7 7 -31 17 -14 51 -32 77 -41 53 -17 77 -40 35 -32 -33 6 -56 -16 -41 -40 8 -11 6 -20 -8 -34 -10 -10 -22 -18 -28 -18 -5 0 -28 -25 -50 -56 -23 -30 -48 -58 -56 -61 -19 -7 -18 -30 3 -42 16 -8 15 -12 -10 -35 l-28 -26 465 0 c456 0 465 0 471 20 3 11 11 20 16 20 6 0 7 -9 4 -20 -6 -19 -2 -20 165 -20 l172 0 -7 23 c-13 41 -12 82 3 106 12 20 12 25 1 32 -26 16 8 9 52 -11 24 -11 54 -20 67 -20 13 0 22 -6 22 -15 0 -8 -9 -15 -20 -15 -16 0 -20 -7 -20 -38 0 -21 -5 -43 -12 -50 -9 -9 198 -12 895 -12 l907 0 0 176 c0 140 -3 174 -12 166 -7 -5 -28 -12 -47 -14 l-33 -5 5 39 c6 48 -16 63 -44 30 -9 -12 -24 -22 -32 -22 -19 0 -26 -19 -20 -52 4 -21 -2 -30 -42 -57 -25 -17 -52 -28 -58 -24 -6 4 -30 6 -54 4 -36 -2 -42 0 -37 13 4 10 1 16 -9 16 -22 0 -31 -18 -17 -35 10 -13 8 -15 -13 -15 -13 0 -47 7 -73 16 -42 13 -54 13 -89 2 -22 -8 -39 -19 -38 -25 1 -6 -4 -17 -12 -23 -8 -7 -15 -20 -15 -30 0 -9 -9 -29 -20 -43 -15 -18 -17 -26 -8 -30 10 -3 10 -7 -1 -20 -18 -23 -50 -21 -72 4 -9 11 -23 19 -31 18 -7 -1 -22 -1 -33 0 -18 1 -18 3 -4 14 22 18 30 44 19 71 -7 19 -5 26 7 30 11 5 14 14 9 36 -5 25 -2 30 15 30 31 0 59 19 59 40 0 10 12 28 26 39 28 22 25 41 -7 41 -10 0 -19 5 -19 10 0 6 -7 10 -16 10 -9 0 -22 7 -29 16 -8 12 -30 18 -69 20 -57 2 -57 2 -82 -38 -21 -33 -30 -39 -50 -35 -13 2 -32 -2 -41 -9 -27 -20 -31 -17 -35 18 -2 23 -9 34 -22 36 -11 3 -26 10 -34 18 -21 21 -41 17 -52 -12 -10 -25 -11 -25 -35 -10 -35 23 -38 21 -30 -24 4 -22 3 -40 -2 -40 -5 0 -9 8 -10 18 -7 67 -7 67 -41 65 -18 0 -41 -8 -50 -16 -16 -14 -17 -13 -16 13 0 20 14 42 45 72 24 24 56 68 70 98 33 69 53 86 109 94 32 5 50 13 59 29 13 20 13 21 -3 8 -9 -8 -20 -11 -23 -7 -4 4 -1 11 6 16 8 5 12 17 8 30 -4 16 -2 20 8 16 10 -3 16 6 21 29 3 19 12 39 19 45 8 6 17 25 20 41 4 16 13 29 21 29 17 0 16 -3 5 36 -10 35 14 73 45 71 14 -2 19 4 18 20 0 16 3 20 11 13 6 -5 30 -12 52 -16 36 -5 45 -3 65 18 13 14 37 32 53 41 17 8 39 24 50 34 11 10 41 29 68 42 26 12 45 26 42 31 -3 4 2 13 9 20 8 6 18 25 21 42 5 23 11 29 26 25 32 -8 23 31 -11 51 -35 20 -45 39 -29 58 17 21 -16 68 -38 55 -11 -6 -21 -4 -31 5 -14 14 -37 10 -27 -6 6 -9 -20 -22 -54 -26 -13 -2 -31 -6 -40 -10 -9 -4 -23 -8 -31 -8 -11 -1 -15 -13 -15 -45 0 -43 -2 -45 -35 -53 -19 -5 -43 -13 -52 -18 -21 -12 -58 19 -58 48 -1 16 -1 16 -11 0 -5 -10 -22 -18 -37 -18 -38 0 -49 -10 -48 -44 1 -18 -6 -32 -16 -37 -10 -5 -26 -13 -35 -18 -10 -4 -20 -23 -23 -41 -3 -21 -12 -36 -24 -40 -11 -3 -29 -26 -40 -51 -18 -37 -26 -44 -51 -44 -24 0 -31 -5 -33 -25 -2 -13 -10 -33 -18 -44 -8 -11 -14 -40 -14 -63 0 -42 0 -42 -25 -31 -14 6 -28 8 -32 4 -8 -7 -24 -107 -24 -146 1 -42 -9 -70 -23 -70 -17 0 -29 28 -19 43 4 7 11 39 14 72 4 33 9 72 13 87 5 22 2 27 -16 30 -31 4 -36 43 -9 58 12 6 21 7 21 3 0 -4 11 15 24 42 16 31 21 54 15 59 -13 14 -11 26 4 26 7 0 23 9 35 20 12 11 26 20 32 20 6 0 38 18 71 40 33 22 67 40 75 40 8 0 14 4 14 9 0 5 3 16 6 25 4 12 0 16 -15 16 -12 0 -21 5 -21 10 0 6 11 10 25 10 31 0 75 27 75 46 0 8 -11 20 -25 26 -22 10 -25 17 -25 64 0 50 9 80 49 161 14 31 14 33 -4 47 -11 8 -32 17 -47 20 -35 7 -37 35 -6 77 22 29 22 31 5 44 -16 12 -16 14 -2 29 9 9 22 16 29 16 21 0 46 34 46 62 0 16 9 32 25 42 16 10 25 26 25 41 0 16 12 37 33 55 27 25 30 31 17 40 -18 11 -45 4 -82 -21 -37 -27 -41 -24 -34 21 4 23 2 40 -3 40 -5 0 -11 10 -13 23 -5 36 -32 27 -38 -13 -4 -30 -10 -35 -41 -43 -36 -8 -37 -9 -32 -48 5 -36 4 -39 -19 -39 -33 0 -48 -18 -48 -57 0 -29 -3 -33 -25 -33 -16 0 -28 -7 -31 -17 -3 -10 -9 -25 -14 -34 -5 -9 -6 -35 -3 -58 4 -27 2 -41 -6 -41 -6 0 -11 -7 -11 -15 0 -8 -4 -15 -10 -15 -5 0 -10 6 -10 14 0 27 -27 24 -54 -6 -21 -25 -26 -40 -26 -87 0 -92 -26 -161 -44 -115 -11 29 -5 138 9 179 8 22 15 48 15 57 0 10 10 26 22 38 l22 20 -32 11 c-23 8 -32 17 -32 33 0 23 57 85 98 105 20 11 22 9 22 -12 0 -33 46 -44 61 -15 6 11 13 17 16 14 10 -10 32 22 27 40 -4 14 6 28 30 48 20 15 36 32 36 36 0 4 8 25 17 46 9 22 17 46 17 54 0 8 4 17 8 20 11 8 -23 70 -38 70 -7 0 -16 16 -20 35 -5 27 -2 41 12 56 11 12 14 23 8 29 -13 13 -55 -16 -48 -33 2 -7 -3 -21 -11 -32 -14 -19 -15 -16 -9 38 7 60 5 63 -27 47 -16 -9 -21 -7 -29 15 -11 29 -26 33 -34 7 -4 -10 -23 -36 -44 -58 -21 -22 -43 -48 -49 -58 -7 -13 -16 -17 -28 -12 -16 6 -15 10 12 39 17 18 38 46 47 64 9 18 22 36 30 40 8 4 30 23 50 41 29 26 36 39 34 64 -2 20 3 33 12 36 29 10 70 61 70 86 0 21 6 28 29 32 39 8 69 40 53 56 -19 19 -14 36 16 50 35 17 41 53 10 62 l-23 6 28 25 c15 13 27 31 27 40 0 18 -12 19 -28 3 -15 -15 -132 -19 -150 -5 -17 14 -23 6 -29 -42 -4 -30 -10 -41 -23 -41 -22 0 -26 -11 -36 -86 -5 -47 -9 -54 -15 -36 -5 12 -13 22 -19 22 -16 0 -40 -64 -40 -106 0 -31 -3 -36 -20 -31 -26 7 -36 -12 -44 -84 -4 -31 -14 -65 -21 -75 -17 -22 -19 -97 -5 -125 16 -28 -16 -25 -32 4 -16 27 -15 209 1 251 9 23 8 39 -5 78 l-16 49 51 54 c28 30 54 67 57 84 3 16 21 44 40 62 19 18 34 42 34 52 0 11 11 30 25 43 14 13 25 33 25 45 0 12 8 31 17 41 14 15 15 23 6 38 -10 14 -9 21 2 30 17 14 20 50 4 50 -20 0 -48 -44 -37 -58 13 -15 2 -30 -12 -16 -5 5 -11 20 -13 34 -2 13 -10 26 -18 28 -8 3 -18 11 -22 18 -4 8 -15 14 -22 14 -27 0 -15 15 31 37 l45 23 11 -30 c7 -22 16 -30 34 -30 25 0 27 -6 24 -55 -2 -26 0 -28 14 -16 14 12 16 11 9 -5 -14 -37 23 4 39 43 30 73 42 143 28 168 -11 20 -20 24 -68 24 -30 0 -58 3 -62 8 -20 20 -13 43 19 65 42 28 62 58 44 65 -22 8 -14 22 21 37 41 17 65 54 45 67 -11 7 -5 17 26 43 47 40 40 57 -13 31 -20 -11 -40 -21 -45 -23 -4 -2 -7 6 -7 17 0 14 6 21 20 21 26 0 48 39 29 51 -21 13 -34 11 -62 -11 l-25 -20 -6 35 c-4 19 -10 35 -13 35 -11 0 -32 -35 -33 -53 0 -10 -11 -22 -25 -27 -23 -9 -31 -25 -37 -80 -2 -17 -9 -25 -21 -25 -25 0 -43 -27 -57 -86 -10 -42 -15 -49 -31 -44 -26 9 -49 -46 -49 -117 0 -37 -6 -60 -20 -78 -24 -30 -25 -68 -5 -117 19 -46 15 -50 -17 -15 -52 55 -62 141 -25 213 19 39 20 48 9 69 -7 15 -10 40 -6 61 3 22 1 40 -5 44 -6 3 -11 22 -11 41 0 22 -6 37 -15 40 -23 9 -19 37 4 29 14 -4 21 2 29 22 21 55 24 75 13 83 -8 5 -4 22 15 59 23 43 26 56 16 71 -9 15 -8 25 3 47 8 15 16 36 19 46 5 17 7 17 32 1 21 -14 30 -15 45 -6 12 8 19 8 19 2 0 -6 -10 -14 -22 -19 -18 -6 -19 -9 -5 -14 10 -4 17 -16 17 -27 0 -13 7 -20 20 -20 11 0 20 5 20 11 0 6 9 8 20 4 12 -4 20 -2 20 5 0 7 9 11 23 8 19 -4 22 0 21 21 -2 14 -3 31 -3 38 -1 6 -12 25 -26 41 -13 16 -22 32 -18 35 3 4 -6 12 -21 18 -19 9 -25 17 -20 28 4 9 11 40 17 69 10 50 9 54 -18 82 -26 27 -33 29 -93 27 -55 -1 -67 -5 -79 -24 -9 -13 -22 -23 -29 -23 -8 0 -17 -7 -20 -15 -4 -8 -12 -15 -19 -15 -22 0 -28 -20 -14 -46 13 -25 4 -48 -10 -25 -5 8 -11 -2 -15 -29 -9 -54 -30 -48 -34 11 -2 24 -8 47 -15 51 -7 4 -8 10 0 20 12 15 35 174 34 228 -2 54 -12 93 -29 113 -15 17 -16 17 -29 -5 -7 -13 -12 -33 -13 -45 0 -13 -6 -22 -12 -20 -8 1 -13 -10 -14 -28 -2 -59 -3 -60 -18 -39 -8 10 -16 17 -18 14 -3 -3 -14 -19 -26 -36 -11 -17 -37 -42 -56 -55 -20 -13 -36 -26 -36 -29 0 -3 18 -15 40 -28 22 -12 40 -26 40 -31 0 -11 -30 -36 -30 -25 0 5 -4 3 -9 -5 -10 -15 -55 -19 -88 -8 -17 6 -23 3 -28 -13 -9 -29 -4 -32 55 -38 39 -4 55 -1 70 13 19 17 23 17 54 2 19 -8 36 -13 39 -10 3 2 3 30 1 61 -4 46 -3 53 6 39 15 -23 27 -207 13 -207 -5 0 -15 6 -22 13 -10 10 -11 9 -7 -3 7 -19 -19 -54 -33 -45 -6 3 -11 19 -11 35 0 26 -3 28 -27 24 -15 -3 -30 -7 -35 -10 -5 -3 -32 -8 -59 -10 -28 -3 -61 -12 -74 -20 -13 -9 -36 -12 -58 -10 -30 4 -37 2 -37 -11 0 -14 -2 -15 -12 -4 -11 10 -8 16 12 29 14 10 41 31 60 48 19 18 44 34 55 37 11 4 1 5 -22 3 -44 -4 -59 5 -60 39 -1 24 89 98 109 90 9 -4 19 4 26 20 15 33 -5 44 -40 21 -13 -8 -33 -13 -45 -10 -21 6 -22 7 -5 33 9 14 22 32 29 39 18 18 16 21 -8 15 -40 -11 -15 21 30 38 l43 15 -59 14 c-76 18 -87 30 -76 78 7 30 17 41 53 59 25 12 50 26 56 31 6 6 20 10 30 9 15 -2 18 4 15 23 -7 51 -50 46 -90 -11 -27 -40 -76 -64 -106 -53 -12 5 -16 4 -12 -3 8 -13 -32 -93 -47 -94 -6 -1 -21 0 -33 1 -27 2 -29 -8 -6 -25 14 -10 8 -12 -35 -7 -48 4 -52 3 -52 -17 0 -13 4 -19 10 -16 13 8 42 -14 35 -25 -9 -15 -119 -21 -175 -10 -65 12 -83 30 -69 69 13 33 57 80 87 92 12 5 22 17 22 27 0 27 -42 62 -73 62 -54 0 -117 23 -117 43 0 15 5 17 36 11 31 -6 39 -3 58 19 27 33 105 64 185 73 46 5 61 10 62 23 1 23 17 -17 18 -44 1 -15 -1 -17 -8 -6 -12 19 -23 -3 -15 -32 3 -14 1 -27 -4 -31 -5 -3 -7 -17 -4 -31 3 -19 0 -25 -14 -25 -16 0 -17 -2 -4 -10 13 -9 12 -12 -5 -25 -39 -28 -44 -35 -38 -52 14 -35 34 -49 64 -45 39 6 37 18 -6 26 -20 4 -33 11 -30 17 4 5 14 5 26 -2 25 -13 32 -8 23 15 -4 11 -13 15 -26 10 -33 -10 -11 14 32 36 22 11 46 20 55 20 9 0 38 11 65 25 27 14 57 25 66 25 14 0 14 3 4 16 -11 12 -10 18 3 32 15 14 22 15 49 4 24 -9 35 -9 46 0 11 10 16 8 23 -5 6 -9 17 -17 26 -17 9 0 32 -10 50 -22 28 -19 32 -27 27 -50 -4 -22 1 -34 24 -58 35 -35 56 -39 47 -10 -9 28 3 44 21 29 12 -9 14 -6 14 22 l0 34 20 -30 c11 -16 20 -40 20 -52 0 -12 4 -32 9 -45 5 -13 13 -36 16 -53 l7 -30 16 33 c13 27 14 38 4 66 -7 18 -13 61 -13 96 -1 51 3 66 21 85 39 41 98 63 160 59 45 -4 50 -2 31 6 -13 6 -36 22 -49 35 -16 17 -32 23 -44 20 -12 -4 -18 -1 -18 9 0 8 9 18 20 21 15 5 18 11 12 23 -5 9 -9 35 -11 57 -1 25 -9 46 -22 57 -10 9 -19 23 -19 31 0 10 -9 13 -36 10 -23 -2 -33 0 -29 7 3 6 -4 11 -17 11 -13 1 -30 2 -40 3 -9 1 -20 4 -24 9 -4 4 -12 7 -18 7 -17 -1 -48 -49 -40 -61 5 -8 9 -8 14 1 4 7 8 0 8 -17 1 -57 8 -102 16 -110 4 -4 7 -3 6 2 -5 21 0 36 10 30 16 -10 12 -65 -4 -65 -8 0 -18 5 -21 10 -4 6 -12 7 -18 3 -6 -4 -25 -6 -42 -5 -24 2 -27 0 -15 -9 13 -9 12 -10 -3 -5 -10 3 -25 6 -33 6 -15 0 -54 56 -54 79 0 8 6 11 15 7 8 -3 15 -1 15 3 0 5 14 8 31 7 31 -2 49 -19 49 -45 0 -8 3 -11 7 -8 3 4 12 2 20 -4 8 -8 13 -8 13 -1 0 6 2 16 5 24 3 7 -7 28 -21 46 -24 28 -31 32 -61 26 -37 -7 -57 4 -77 45 -25 48 -29 71 -13 71 9 0 18 6 20 13 4 9 6 9 6 0 1 -20 19 -15 26 6 4 13 12 18 23 15 13 -5 13 -2 -4 13 -16 15 -44 63 -44 77 0 2 15 6 33 9 32 4 93 -17 112 -40 6 -7 15 -9 23 -5 10 7 9 17 -3 53 -8 24 -21 54 -27 67 -11 22 -13 22 -19 5 -11 -26 -10 -45 0 -38 10 6 26 -33 17 -42 -8 -8 -48 4 -71 22 -19 14 -19 16 -2 26 9 5 17 15 17 21 0 6 8 20 18 31 16 19 16 19 -5 13 -12 -4 -24 -2 -28 4 -3 5 2 10 12 11 11 0 13 3 5 6 -6 2 -10 9 -6 14 3 5 1 9 -5 9 -5 0 -12 -4 -15 -8 -3 -5 -18 -7 -34 -4 -16 2 -33 -1 -36 -7 -4 -6 -22 -11 -40 -11 -31 0 -33 -2 -28 -26 5 -29 -4 -28 -41 5 -15 13 -20 13 -27 1 -7 -11 -11 -10 -25 3 -15 15 -13 19 19 52 39 38 54 43 62 20 10 -24 28 -17 45 18 15 29 20 32 62 32 56 0 75 15 21 16 -32 1 -28 3 21 9 56 7 61 6 82 -19 13 -14 36 -51 52 -82 16 -31 54 -94 86 -139 66 -98 89 -107 156 -64 30 18 44 23 52 15 6 -6 17 -11 24 -11 11 0 11 4 1 20 -7 11 -18 20 -25 20 -7 0 -13 6 -14 13 -2 35 -11 73 -20 81 -6 6 -9 6 -9 -2 0 -15 -22 -15 -54 0 -18 8 -23 15 -16 23 7 8 2 22 -14 43 -20 28 -25 30 -36 17 -15 -18 -54 -20 -68 -2 -5 6 -12 26 -15 44 -3 17 -8 36 -11 41 -3 6 1 23 9 38 8 16 15 40 15 54 1 32 21 58 40 52 11 -3 9 2 -5 18 -11 12 -19 25 -17 28 2 4 -2 8 -10 10 -9 2 -8 0 2 -8 12 -9 10 -10 -10 -8 -17 2 -24 8 -22 21 2 9 -1 17 -6 17 -12 0 -72 -122 -72 -147 0 -24 -34 -58 -49 -48 -6 3 -11 19 -11 34 0 43 -110 190 -168 223 -26 15 -52 28 -58 28 -7 0 -26 13 -43 29 -29 27 -31 35 -29 81 3 46 0 52 -24 68 -45 27 -53 5 -22 -63 22 -47 25 -62 15 -76 -14 -23 -15 -62 -1 -54 5 3 15 -5 21 -19 18 -38 39 -41 46 -6 10 50 24 34 17 -19 -13 -99 18 -132 94 -100 41 18 42 18 42 0 0 -10 7 -32 15 -47 18 -35 19 -54 2 -54 -6 0 -18 -13 -25 -28 -16 -37 -49 -72 -68 -72 -8 0 -12 5 -9 10 3 6 -1 10 -10 10 -9 0 -14 4 -10 9 13 23 -17 20 -40 -3 -14 -15 -31 -26 -38 -26 -7 0 -6 4 3 10 13 8 13 10 1 10 -12 0 -12 3 -3 12 7 7 12 20 12 30 0 14 8 18 34 18 58 0 49 16 -29 50 -103 45 -124 82 -89 156 9 19 14 37 11 41 -4 3 -29 8 -57 11 -56 5 -84 -9 -75 -39 5 -15 1 -19 -19 -19 -27 0 -36 -23 -15 -36 6 -3 9 -18 6 -32 -3 -15 1 -31 12 -42 29 -29 70 -50 85 -44 9 3 16 2 16 -4 0 -5 6 -12 14 -15 9 -4 12 0 9 13 -7 28 12 32 41 9 29 -23 34 -44 10 -53 -18 -7 -16 -62 3 -59 26 5 3 -33 -53 -84 -32 -31 -54 -57 -49 -60 6 -2 38 5 70 16 l60 20 -28 -25 c-15 -13 -35 -24 -44 -24 -9 0 -25 -7 -35 -17 -17 -15 -18 -15 -18 1 0 16 -1 16 -16 2 -8 -9 -20 -16 -25 -16 -5 0 -9 -5 -9 -11 0 -5 5 -7 10 -4 6 3 10 -3 10 -15 0 -11 -8 -23 -17 -27 -10 -3 -29 -14 -43 -23 -14 -9 -37 -20 -52 -24 -35 -8 -36 -33 -3 -46 14 -5 25 -14 25 -20 0 -5 7 -10 15 -10 10 0 15 -11 15 -35 0 -19 5 -35 10 -35 6 0 10 9 10 20 0 25 6 27 94 35 69 5 69 5 45 -13 -43 -34 -71 -45 -78 -33 -6 10 -16 -4 -38 -51 -2 -4 2 -10 8 -14 8 -4 9 -3 5 4 -5 8 1 12 17 12 14 0 27 7 31 15 8 21 43 19 56 -4 5 -11 18 -22 28 -25 9 -3 23 -15 30 -27 13 -20 12 -21 -15 -15 -22 5 -37 1 -56 -14 -16 -12 -27 -16 -27 -10 0 7 -7 10 -15 6 -11 -4 -15 2 -15 26 l0 31 -22 -20 c-52 -47 -130 -73 -172 -57 -14 5 -13 10 8 29 13 12 40 32 60 44 20 13 36 26 36 31 0 16 -21 22 -36 9 -9 -7 -39 -11 -77 -10 -106 3 -118 14 -85 81 16 31 25 40 39 37 11 -3 19 -1 19 4 0 5 -4 9 -10 9 -5 0 -7 12 -4 28 l6 27 -84 13 c-90 15 -158 46 -158 73 0 27 27 30 65 8 l35 -21 33 32 c17 18 54 44 80 60 l48 28 -35 6 c-22 4 -42 16 -52 31 -14 21 -14 27 0 52 8 15 33 46 55 67 43 42 44 56 6 56 -14 0 -54 14 -90 32 -94 46 -97 75 -16 120 27 15 65 30 86 34 56 10 27 27 -49 29 -36 1 -71 6 -78 12 -7 6 -40 16 -73 23 -82 17 -98 26 -89 53 10 35 20 40 51 24 16 -9 52 -20 81 -25 54 -10 67 -5 117 41 39 36 111 76 180 100 94 34 127 40 157 28 38 -14 53 0 39 39 -6 18 -11 44 -11 58 0 20 -3 22 -14 13 -11 -9 -15 -9 -18 1 -4 11 -8 11 -20 0 -12 -10 -27 -10 -69 -1 -30 7 -60 12 -66 12 -21 0 -15 33 12 65 14 17 25 32 25 36 0 3 -24 4 -53 3 -43 -2 -67 -11 -120 -45 -37 -23 -67 -40 -67 -36 0 33 131 141 255 207 107 58 170 66 242 29 24 -13 61 -22 86 -22 50 0 61 -9 74 -60 5 -20 16 -35 24 -35 15 0 16 5 18 72 1 42 1 42 21 26 11 -10 20 -23 20 -30 0 -7 7 -13 15 -13 9 0 12 -6 9 -15 -4 -8 -12 -15 -19 -15 -12 0 -60 -70 -78 -114 -7 -18 -9 -18 -24 -3 -13 13 -14 19 -4 31 15 18 6 53 -22 84 -22 23 -51 29 -62 11 -4 -6 -16 -14 -26 -18 -18 -6 -18 -9 10 -46 17 -22 31 -50 31 -62 0 -41 45 -68 69 -40 6 8 29 20 50 27 37 12 41 17 47 56 6 44 15 51 48 38 20 -8 20 -23 0 -63 -19 -38 -12 -67 14 -56 9 5 32 10 50 13 24 3 40 14 57 40 14 20 25 42 25 49 0 7 12 15 27 19 16 4 34 13 41 22 7 10 12 11 12 4 0 -8 22 -12 69 -12 52 0 78 -5 112 -23 24 -13 63 -27 87 -31 23 -3 72 -18 108 -33 l65 -26 30 22 c32 24 55 22 66 -5 4 -11 -1 -23 -15 -35 -17 -13 -21 -24 -16 -46 8 -38 -4 -47 -101 -74 -44 -13 -82 -24 -84 -26 -2 -1 10 -18 28 -38 49 -56 39 -115 -20 -115 l-27 0 23 -46 c52 -102 41 -163 -26 -144 -36 10 -155 76 -164 90 -3 6 -16 15 -28 21 -18 9 -20 9 -9 -2 24 -26 14 -41 -23 -37 -50 6 -38 -13 17 -27 25 -6 68 -28 96 -47 35 -26 57 -35 72 -31 25 7 40 -10 40 -44 0 -14 -6 -23 -15 -23 -9 0 -19 -8 -22 -17 -4 -10 -10 -20 -14 -23 -5 -3 9 -28 31 -54 105 -134 98 -188 -24 -188 l-43 0 -7 -54 c-8 -68 4 -94 44 -94 29 0 34 -7 33 -47 -1 -7 3 -13 8 -13 5 0 9 5 9 11 0 8 6 7 17 -2 9 -8 24 -13 34 -11 10 2 28 -2 39 -8 19 -10 20 -17 15 -71 -6 -56 -5 -59 20 -71 19 -8 24 -16 19 -31 -4 -12 1 -23 14 -33 11 -7 22 -26 25 -41 19 -88 19 -91 0 -119 -10 -16 -26 -36 -37 -45 -15 -12 -17 -19 -8 -35 9 -16 7 -28 -9 -53 -11 -18 -18 -36 -15 -38 9 -9 -23 -62 -44 -73 -18 -9 -59 -7 -101 6 -12 3 -19 -3 -23 -20 -3 -14 -14 -26 -24 -29 -9 -2 3 -2 28 0 34 2 40 1 25 -6 -17 -8 -17 -10 -3 -10 24 -1 66 -43 60 -60 -3 -8 0 -11 6 -7 6 4 16 -3 22 -15 l12 -21 22 21 c28 26 38 26 53 1 16 -24 7 -50 -17 -50 -9 0 -25 -9 -35 -20 -18 -20 -18 -21 8 -48 54 -57 40 -119 -35 -149 -43 -17 -47 -32 -17 -72 22 -30 19 -51 -7 -51 -8 0 -14 -5 -14 -11 0 -7 -11 -9 -30 -6 -17 4 -30 2 -30 -3 0 -6 7 -10 15 -10 7 0 18 -6 22 -12 13 -21 97 -75 109 -71 6 2 17 -3 24 -12 7 -8 18 -15 25 -15 6 0 20 -9 30 -20 10 -11 23 -20 30 -20 23 0 64 -60 80 -117 4 -13 13 -23 21 -23 8 0 13 -3 11 -7 -8 -13 12 -55 23 -48 6 3 31 -4 56 -17 43 -21 47 -22 59 -5 11 16 13 16 19 1 3 -9 12 -14 20 -11 8 3 23 -3 34 -14 12 -10 28 -19 37 -19 8 0 15 -4 15 -10 0 -5 9 -10 19 -10 17 0 19 -7 16 -77 -3 -74 -5 -79 -36 -103 -61 -47 -153 -99 -159 -90 -9 14 -47 1 -54 -18 -3 -10 -17 -48 -31 -87 -14 -38 -31 -90 -36 -115 -6 -25 -14 -59 -20 -76 -5 -17 -9 -40 -9 -53 0 -42 -61 -116 -104 -127 -17 -4 -25 -14 -28 -35 -4 -24 1 -33 26 -49 17 -11 54 -34 81 -53 28 -18 70 -39 94 -47 42 -13 44 -13 62 9 14 17 19 19 19 8 0 -8 -6 -18 -13 -20 -7 -3 -6 -6 5 -6 9 -1 20 3 23 9 11 18 40 10 67 -18 19 -20 24 -33 17 -43 -8 -12 -10 -12 -19 1 -5 8 -10 10 -10 4 0 -6 9 -23 20 -36 11 -14 24 -38 30 -53 6 -15 23 -32 40 -38 17 -6 33 -20 36 -30 4 -12 12 -16 24 -12 13 4 20 0 25 -15 8 -25 16 -25 39 1 14 16 25 20 49 15 18 -3 60 -9 95 -12 34 -4 62 -10 62 -14 0 -4 11 -10 26 -13 23 -4 25 -2 22 32 -2 28 -7 35 -21 33 -17 -3 -18 3 -12 70 10 131 16 152 62 245 52 104 74 120 170 119 l53 -1 0 43 c0 39 -2 42 -26 42 -14 0 -41 -7 -60 -16 -40 -19 -53 -12 -79 42 -30 64 -26 148 10 204 12 19 78 62 123 79 38 16 42 38 8 47 -14 3 -26 15 -29 27 -10 45 -1 245 11 260 8 10 12 45 10 108 -2 77 1 99 15 121 14 19 17 41 15 88 l-3 62 -38 -30 c-45 -36 -84 -47 -119 -33 -53 20 -41 140 13 141 28 0 39 24 45 98 5 58 4 72 -7 73 -8 0 -32 2 -55 4 -48 5 -83 -20 -86 -63 -4 -71 -6 -82 -19 -98 -11 -13 -25 -15 -76 -11 -39 4 -65 2 -69 -4 -4 -7 -26 -9 -60 -4 -36 4 -54 3 -54 -4 0 -14 -17 -14 -33 -1 -81 65 -86 71 -81 103 24 146 70 217 112 175 16 -16 26 13 18 52 -4 24 -2 30 12 30 10 0 28 11 40 25 12 14 28 25 36 25 28 0 49 -51 32 -78 -9 -14 9 -41 20 -30 3 4 7 25 9 47 2 33 12 52 46 89 33 35 47 62 59 107 12 50 20 62 45 74 45 22 138 27 157 8 8 -9 24 -17 34 -19 19 -3 19 24 22 1185 2 1182 2 1187 -18 1187 -11 0 -20 7 -20 15 0 8 -6 15 -14 15 -8 0 -29 8 -46 18 -25 13 -34 14 -37 5 -3 -7 -9 -13 -14 -13 -6 0 -8 4 -4 10 9 14 -41 43 -64 35 -14 -4 -26 3 -45 28 -20 26 -32 33 -50 30 -20 -4 -24 0 -30 29 -5 26 -15 38 -48 56 -25 12 -61 22 -84 22 -23 0 -47 6 -53 14 -6 8 -24 19 -39 25 -16 7 -34 27 -43 49 -22 49 -52 189 -44 202 10 17 -4 60 -19 60 -7 0 -18 11 -24 25 -14 30 -44 33 -72 5 -11 -11 -30 -20 -43 -20 -28 0 -86 30 -122 64 -15 14 -31 26 -35 26 -4 0 -10 9 -13 20 -4 15 -14 20 -42 20 -39 0 -95 -24 -95 -41 0 -5 -15 -17 -33 -25 -70 -33 -87 -46 -93 -70 -4 -16 -12 -23 -20 -20 -9 3 -14 -2 -14 -14 0 -11 -6 -20 -14 -20 -7 0 -19 -7 -26 -15 -7 -8 -22 -15 -35 -15 -28 0 -51 -45 -34 -66 16 -20 5 -40 -26 -48 -32 -8 -69 20 -79 59 -5 21 -31 35 -64 35 -7 0 -22 -20 -33 -45 -13 -30 -33 -54 -59 -70 -45 -28 -58 -32 -41 -11 7 9 8 17 2 20 -5 3 -12 0 -14 -6 -4 -9 -6 -7 -6 3 -1 9 -9 23 -18 30 -15 11 -16 11 -5 -1 6 -8 12 -25 12 -37 0 -13 9 -36 21 -52 15 -20 18 -35 13 -55 -5 -21 -9 -24 -16 -14 -6 10 -14 6 -33 -17 -14 -16 -25 -25 -25 -20 0 6 -4 4 -9 -3 -6 -10 -10 -3 -15 22 -7 38 -1 60 15 51 5 -4 9 3 9 15 0 12 -4 18 -10 15 -6 -3 -10 1 -10 9 0 20 -19 21 -26 2 -3 -8 -12 -12 -21 -9 -12 5 -13 -1 -8 -33 l6 -39 -18 28 c-22 34 -33 34 -33 2 0 -14 -4 -25 -10 -25 -5 0 -10 4 -10 9 0 17 -31 41 -52 41 -12 0 -59 18 -105 40 -46 23 -88 38 -92 35 -5 -3 -26 17 -46 45 -33 46 -65 65 -65 40 0 -5 -7 -10 -15 -10 -15 0 -55 -19 -65 -31 -13 -16 -53 -20 -73 -6 -12 8 -44 17 -70 21 l-48 7 27 32 26 31 -22 8 c-12 5 -41 10 -64 12 -39 3 -41 5 -44 39 -2 20 4 59 12 88 20 65 20 69 1 69 -8 0 -15 -4 -15 -10 0 -5 -5 -10 -10 -10 -13 0 -3 44 21 93 10 21 19 42 19 47 0 7 -418 10 -1160 10 l-1160 0 0 -2250z m1648 2112 c23 -48 34 -49 57 -7 13 26 25 35 39 33 12 -1 31 3 43 10 31 17 40 15 59 -12 12 -19 13 -29 5 -43 -6 -10 -11 -12 -11 -5 0 14 -50 17 -50 3 0 -15 -68 -78 -84 -78 -9 0 -16 4 -16 8 0 5 -7 6 -15 3 -10 -4 -12 -11 -7 -18 5 -6 5 -26 -1 -46 l-11 -35 -7 60 c-3 33 -12 74 -19 90 l-13 30 -7 -30 c-4 -16 -9 -50 -10 -75 l-3 -45 -7 55 -7 55 -2 -55 -3 -55 -10 39 c-9 31 -7 51 7 95 26 82 42 87 73 23z m218 -63 c3 -6 1 -16 -5 -22 -8 -8 -11 -8 -11 2 0 9 -9 12 -25 9 -26 -5 -35 6 -12 15 22 9 46 7 53 -4z m-372 -94 c27 -46 52 -57 63 -29 4 12 10 9 24 -15 11 -18 29 -32 48 -36 17 -4 31 -11 31 -16 0 -6 -4 -7 -10 -4 -5 3 -10 -1 -10 -9 0 -9 -4 -16 -10 -16 -5 0 -10 5 -10 11 0 6 -8 9 -18 7 -12 -3 -24 2 -31 14 -12 19 -13 19 -26 1 -8 -10 -15 -14 -15 -10 0 4 -9 3 -19 -2 -16 -9 -20 -6 -25 22 -3 18 -15 40 -26 50 -21 17 -24 34 -14 61 10 25 20 19 48 -29z m296 -26 c0 -10 -4 -19 -10 -19 -5 0 -10 12 -10 26 0 14 4 23 10 19 6 -3 10 -15 10 -26z m-212 -152 c2 -10 -2 -16 -10 -15 -14 3 -28 18 -28 31 0 16 35 1 38 -16z m-209 5 c51 -7 85 -32 44 -32 -17 -1 -17 -1 0 -14 9 -7 24 -37 33 -65 15 -53 22 -58 52 -40 15 9 25 4 62 -32 l45 -44 5 74 c3 47 10 76 17 79 22 7 27 -27 14 -95 -16 -89 -7 -90 14 -2 12 47 26 81 42 95 12 12 23 24 23 26 0 6 -41 21 -53 19 -4 -1 -2 8 5 19 14 23 33 27 25 6 -7 -17 32 -26 113 -26 105 0 189 -67 160 -129 l-13 -26 -9 28 c-11 32 -34 39 -109 35 -52 -3 -54 -5 -65 -37 -6 -18 -18 -38 -28 -43 -22 -13 -54 -1 -61 23 -10 29 -22 14 -29 -36 -4 -25 -14 -52 -22 -60 -9 -8 -13 -19 -9 -24 3 -5 1 -12 -5 -16 -17 -10 -11 -50 10 -68 23 -19 84 -22 145 -6 116 31 122 30 217 -20 136 -72 288 -211 288 -264 0 -9 -2 -17 -4 -17 -2 0 -48 23 -102 50 -82 43 -104 50 -134 45 -20 -3 -48 -2 -63 4 l-26 10 34 -54 c38 -58 47 -118 20 -129 -9 -3 -15 0 -15 8 0 8 -11 17 -24 20 -13 3 -36 23 -51 43 -43 57 -76 82 -112 83 -37 0 -40 -4 -49 -56 -5 -34 -1 -46 30 -91 20 -29 36 -63 36 -75 -1 -60 -67 -91 -175 -82 -56 5 -59 4 -41 -10 11 -9 26 -16 35 -16 8 0 22 -7 31 -15 13 -12 27 -13 64 -6 56 10 161 -1 225 -23 27 -10 57 -14 82 -10 29 5 39 3 41 -7 0 -8 2 -18 2 -24 1 -5 10 -22 19 -36 12 -17 15 -33 10 -47 -12 -30 -82 -82 -129 -94 l-43 -12 20 -25 c50 -63 78 -181 44 -181 -18 0 -19 5 5 -63 23 -65 26 -120 7 -136 -17 -13 -63 -1 -111 29 l-34 21 -6 -28 c-17 -80 -3 -144 37 -175 17 -13 19 -20 10 -28 -7 -8 -8 -22 -2 -43 5 -18 9 -58 9 -89 0 -49 -4 -61 -27 -83 -30 -27 -48 -30 -87 -15 -21 8 -28 5 -45 -16 l-20 -26 -31 22 c-16 12 -30 29 -30 37 0 13 -5 12 -24 -6 -14 -13 -31 -21 -38 -19 -8 3 -1 11 17 20 17 9 38 25 48 36 20 21 47 19 47 -3 0 -7 6 -15 14 -18 18 -7 27 24 12 40 -37 40 -39 45 -25 54 8 5 18 9 22 9 15 0 34 25 29 38 -2 6 1 12 7 12 21 0 11 20 -19 35 -16 9 -30 22 -30 29 0 8 -8 13 -17 12 -12 -1 -19 7 -21 25 -3 30 -42 55 -67 45 -12 -4 -15 -12 -10 -24 13 -31 23 -82 15 -77 -4 2 -13 18 -20 35 -15 37 -26 38 -34 4 -6 -21 -9 -24 -21 -14 -8 7 -15 23 -15 36 0 12 -4 26 -10 29 -11 7 -8 90 4 117 11 23 -20 78 -44 78 -11 0 -24 9 -30 21 -19 35 -21 16 -4 -47 22 -85 16 -230 -10 -250 -11 -8 -25 -14 -30 -14 -6 0 -5 4 2 9 8 5 12 21 10 41 -3 28 -7 33 -31 36 -38 4 -76 30 -87 60 -11 29 -40 32 -47 4 -3 -11 -9 -20 -14 -20 -5 0 -44 -26 -87 -57 -50 -38 -85 -56 -99 -55 -14 2 -23 -2 -23 -10 0 -9 -23 -19 -60 -27 -46 -10 -60 -17 -58 -30 3 -15 54 -31 103 -32 15 0 16 -2 6 -8 -17 -11 -5 -51 15 -51 17 0 17 1 3 -39 -7 -19 -18 -31 -29 -31 -22 0 -73 -47 -68 -62 3 -7 15 -15 29 -19 92 -26 115 -34 126 -42 7 -5 25 -5 45 2 53 17 115 17 135 0 20 -18 91 -59 100 -59 3 0 -1 8 -9 18 -8 9 -18 29 -22 45 -5 23 -3 27 14 27 19 0 67 -27 115 -65 16 -13 17 -19 8 -33 -7 -9 -29 -52 -49 -95 -39 -80 -93 -137 -131 -137 -10 0 -23 -4 -28 -9 -6 -6 -28 -12 -50 -14 -27 -3 -41 -9 -43 -21 -3 -15 -5 -15 -20 1 -20 20 -23 73 -4 66 6 -3 12 -9 12 -14 0 -37 65 48 92 121 9 25 15 47 13 49 -8 8 -161 6 -173 -2 -8 -7 -12 -4 -12 9 0 16 -1 16 -12 2 -7 -9 -24 -19 -38 -22 -22 -5 -22 -4 3 6 17 8 26 18 24 28 -2 8 5 30 15 48 19 31 19 32 1 38 -10 3 -27 10 -38 14 -31 13 -183 21 -190 10 -10 -15 -51 -12 -65 5 -11 13 -9 23 8 54 28 49 27 51 -3 51 -28 0 -49 31 -43 64 3 12 -1 28 -9 34 -19 19 -17 28 22 71 19 21 35 48 35 59 0 11 6 22 13 25 9 4 9 7 0 17 -10 11 -9 16 5 27 16 13 15 14 -5 10 -28 -6 -31 17 -5 32 21 12 8 28 -28 33 -17 2 -25 9 -24 21 1 9 -2 17 -7 17 -5 0 -9 -4 -9 -8 0 -9 -133 3 -150 13 -16 10 -12 45 6 52 9 3 31 -1 48 -9 52 -27 66 -29 66 -11 0 9 11 31 25 49 14 18 24 43 23 56 -3 19 1 23 23 20 32 -4 127 52 108 63 -6 4 -15 1 -20 -6 -4 -7 -11 -10 -15 -7 -4 4 0 18 9 32 9 13 13 26 10 30 -12 11 -69 6 -90 -9 -18 -13 -22 -12 -38 4 -20 23 -10 49 30 75 14 9 25 20 25 25 0 4 -21 19 -46 32 -52 26 -78 58 -68 83 9 23 68 46 121 46 42 0 44 1 37 23 -4 12 -8 41 -9 64 -1 47 -11 65 -25 43 -6 -10 -10 -3 -15 23 l-7 36 -29 -14 c-16 -9 -36 -27 -45 -40 -19 -29 -31 -31 -56 -8 -24 22 -23 39 6 55 13 7 44 26 69 41 41 25 50 27 84 18 41 -11 54 -3 46 29 -9 33 31 44 90 25 29 -9 63 -24 76 -32 20 -13 26 -14 29 -3 3 8 16 24 28 37 13 13 24 25 24 27 0 1 -25 24 -55 50 -58 50 -93 63 -124 47 -11 -6 -30 -7 -49 -2 -20 6 -34 5 -42 -2 -10 -9 -11 -6 -5 13 4 14 13 31 19 39 18 23 111 79 142 87 16 3 38 12 50 19 25 16 154 28 173 16 7 -5 25 -2 42 6 25 12 36 12 83 0 l55 -14 7 46 c4 25 13 65 21 89 14 42 14 44 -11 67 -14 13 -33 25 -43 27 -11 2 -19 14 -21 31 -2 18 -9 27 -21 27 -9 0 -36 20 -60 45 -24 25 -50 45 -59 45 -10 0 -36 9 -58 19 -31 14 -45 16 -53 8 -8 -8 -11 -4 -11 16 0 22 10 34 47 57 50 32 91 36 212 22z m295 -58 c3 -8 2 -12 -4 -9 -6 3 -10 10 -10 16 0 14 7 11 14 -7z m1354 -138 c-9 -6 -18 -20 -21 -31 -3 -12 -5 -6 -6 16 -1 42 18 68 32 42 7 -11 5 -20 -5 -27z m133 -29 c-8 -8 -11 -5 -11 9 0 27 14 41 18 19 2 -9 -1 -22 -7 -28z m59 28 c8 -10 10 -29 6 -55 l-6 -41 29 16 c46 23 74 19 93 -13 16 -27 16 -31 0 -64 -14 -30 -21 -35 -42 -31 -20 4 -29 -1 -40 -21 -20 -39 -35 -17 -22 34 8 34 8 42 -5 47 -8 3 -19 0 -25 -8 -7 -10 -8 -1 -4 29 4 23 4 42 1 42 -13 0 -74 -72 -78 -92 -2 -13 -5 3 -6 35 -1 57 5 67 27 45 9 -9 12 -7 12 10 0 12 4 22 9 22 5 0 11 14 15 30 6 33 17 38 36 15z m-1313 -69 c-10 -21 -13 -22 -21 -9 -5 10 -4 18 5 24 23 15 28 10 16 -15z m1073 -6 c22 0 30 -6 39 -31 6 -17 9 -35 6 -39 -3 -4 2 -27 10 -50 8 -23 15 -53 15 -66 0 -31 17 -39 46 -23 21 11 26 10 38 -6 7 -10 18 -15 24 -11 7 4 12 2 12 -3 0 -6 7 -11 16 -11 12 0 14 -9 12 -42 -2 -35 -7 -43 -21 -41 -15 1 -18 -4 -13 -25 5 -21 4 -23 -4 -12 -9 13 -11 13 -20 0 -7 -11 -10 -2 -10 33 0 35 4 47 15 47 8 0 15 5 15 11 0 5 -4 7 -10 4 -5 -3 -10 -1 -10 5 0 6 -5 8 -10 5 -6 -3 -13 1 -16 9 -3 9 -11 13 -17 9 -20 -12 -47 -10 -47 4 0 23 -47 107 -74 132 -34 32 -66 38 -66 12 0 -10 7 -24 15 -31 9 -7 15 -29 15 -52 0 -23 11 -62 25 -90 14 -27 25 -58 25 -68 0 -29 32 -90 47 -90 15 0 18 -26 3 -35 -5 -3 -10 -12 -10 -18 0 -7 4 -6 11 3 8 12 9 9 5 -11 -6 -30 11 -99 24 -99 6 0 10 5 10 11 0 8 4 8 15 -1 12 -10 15 -7 21 15 4 15 10 22 13 17 4 -7 24 6 49 29 24 21 47 39 52 39 16 0 23 42 9 51 -25 15 14 63 53 67 136 13 207 12 263 -2 81 -21 121 -72 81 -105 -12 -10 -13 -8 -9 8 8 31 -37 44 -121 37 -70 -7 -96 -18 -96 -42 0 -21 41 -53 77 -60 18 -3 35 -10 38 -14 2 -4 -11 -23 -30 -43 -19 -20 -37 -32 -40 -27 -3 4 -14 6 -25 3 -15 -4 -17 -9 -10 -23 16 -29 12 -80 -5 -80 -8 0 -15 6 -15 13 0 28 -37 48 -95 52 -75 4 -125 -17 -125 -54 0 -24 -1 -24 -15 -5 -13 16 -16 17 -25 4 -15 -23 -12 5 5 47 8 19 15 39 15 44 0 15 -29 10 -38 -7 -6 -12 -18 -15 -36 -12 -14 3 -26 1 -26 -3 0 -17 -25 -9 -38 12 -10 16 -10 24 -1 35 18 22 -34 38 -77 22 -30 -11 -36 -10 -57 10 -34 32 -124 59 -148 44 -16 -10 -19 -9 -24 11 -4 12 -1 35 4 51 15 37 14 43 -4 20 -15 -19 -15 -19 -20 34 -4 41 -15 105 -21 126 -4 10 0 22 7 27 12 7 12 9 0 9 -11 0 -10 5 3 25 9 13 16 32 16 42 1 46 132 129 187 119 16 -4 23 2 28 21 4 17 11 23 21 19 9 -3 28 -6 44 -6z m280 -197 c0 -26 -16 -47 -29 -39 -7 5 -7 14 1 31 13 29 28 33 28 8z m-2406 -519 c3 -8 2 -12 -4 -9 -6 3 -10 10 -10 16 0 14 7 11 14 -7z m2551 -4 c-3 -5 -11 -10 -16 -10 -6 0 -7 5 -4 10 3 6 11 10 16 10 6 0 7 -4 4 -10z m-2085 -713 c29 -23 70 -93 70 -119 0 -14 7 -31 15 -38 8 -7 15 -18 15 -24 0 -6 -14 4 -31 22 -16 18 -34 30 -39 27 -13 -8 -37 33 -44 78 -4 21 -10 45 -13 53 -6 17 7 18 27 1z m-105 -127 c-4 -12 5 -26 27 -44 37 -29 37 -29 -62 -28 -84 2 -100 8 -100 40 0 15 4 32 8 39 8 13 53 20 100 14 26 -3 31 -7 27 -21z m320 -148 c-3 -3 -11 0 -18 7 -9 10 -8 11 6 5 10 -3 15 -9 12 -12z m45 -37 c13 -14 19 -25 14 -25 -12 0 -26 11 -43 33 -21 26 2 20 29 -8z m-212 -43 c2 -7 -7 -12 -22 -12 -27 0 -35 15 -13 23 17 7 30 3 35 -11z m1510 -24 c8 -10 11 -18 6 -18 -17 0 -34 23 -33 45 0 14 2 16 6 5 3 -8 12 -23 21 -32z m-1212 -50 c-4 -37 -2 -61 8 -79 7 -15 16 -62 19 -105 5 -70 5 -73 -4 -26 -5 29 -20 77 -34 106 -24 51 -34 113 -16 102 5 -3 11 8 15 24 10 50 19 33 12 -22z m1251 10 c-3 -8 -6 -5 -6 6 -1 11 2 17 5 13 3 -3 4 -12 1 -19z m-147 -48 c19 -22 44 -40 55 -41 11 0 -4 -8 -33 -16 -49 -15 -54 -15 -72 2 -11 10 -20 24 -20 31 0 17 22 64 29 64 4 0 22 -18 41 -40z m-1800 5 c0 -9 -9 -15 -25 -15 -48 0 -24 -16 27 -18 28 0 56 -6 62 -12 5 -5 19 -10 31 -11 15 0 11 -4 -15 -16 -19 -8 -47 -22 -62 -29 -14 -8 -51 -14 -82 -14 -55 0 -56 0 -56 29 0 38 9 61 24 61 6 0 29 9 51 20 47 24 45 24 45 5z m615 -14 c-9 -16 -25 -3 -18 15 4 10 9 12 15 6 6 -6 7 -15 3 -21z m1382 7 c-3 -8 -6 -5 -6 6 -1 11 2 17 5 13 3 -3 4 -12 1 -19z m73 -20 c0 -12 -7 -10 -24 8 -9 8 -13 20 -10 26 7 11 34 -17 34 -34z m-2490 -88 c87 -59 213 -197 249 -272 17 -36 31 -71 31 -77 0 -21 63 -196 73 -202 5 -4 6 -12 3 -18 -11 -17 15 -14 110 14 72 21 92 23 131 15 50 -12 186 -3 217 13 16 8 26 3 53 -27 18 -20 42 -36 53 -36 42 0 119 -49 147 -93 24 -38 107 -127 118 -127 3 0 5 11 5 25 0 14 5 25 11 25 14 0 5 -73 -10 -78 -6 -2 -11 -10 -11 -18 0 -24 -33 -81 -38 -66 -3 10 -7 9 -16 -3 -19 -27 -71 -27 -96 0 -19 20 -22 34 -21 89 1 36 -3 67 -9 71 -5 3 -10 26 -10 51 0 47 -16 58 -40 29 -7 -8 -18 -15 -24 -15 -7 0 -27 -11 -46 -25 -23 -17 -37 -22 -44 -15 -18 18 -28 11 -22 -15 5 -20 3 -25 -13 -25 -15 0 -18 -5 -14 -21 4 -12 14 -24 25 -26 23 -7 23 -29 0 -42 -26 -14 -41 0 -38 37 4 61 -26 22 -40 -53 -8 -39 -8 -39 -12 -9 -1 17 5 53 16 80 18 48 20 140 2 129 -5 -3 -23 -7 -40 -9 -17 -2 -40 -13 -50 -24 -12 -13 -27 -18 -40 -15 -16 4 -20 1 -20 -20 0 -19 -8 -29 -30 -39 -17 -7 -30 -16 -30 -20 0 -18 -4 -24 -21 -36 -11 -7 -19 -23 -19 -36 0 -12 -5 -27 -12 -34 -8 -8 -8 -15 2 -27 15 -19 13 -22 -20 -27 -20 -2 -24 1 -21 17 3 19 2 19 -16 2 -11 -9 -29 -17 -41 -17 -13 0 -22 -6 -22 -15 0 -9 6 -12 15 -9 11 5 13 2 9 -10 -6 -15 -23 -15 -70 -1 -6 2 -14 22 -18 44 -3 23 -11 41 -16 41 -6 0 -10 5 -10 12 0 6 -11 26 -25 44 -14 18 -25 39 -25 46 0 8 -7 23 -15 34 -8 10 -15 31 -15 47 0 15 -5 27 -10 27 -6 0 -9 3 -8 8 2 11 -31 80 -42 87 -5 3 -10 12 -10 20 0 35 -176 269 -197 261 -6 -3 -10 0 -7 7 7 19 -42 73 -126 140 -55 44 -77 68 -82 91 -19 85 49 134 187 133 41 0 60 -6 105 -37z m2276 -7 c-7 -7 -26 7 -26 19 0 6 6 6 15 -2 9 -7 13 -15 11 -17z m79 7 c-3 -5 -18 -10 -33 -9 -24 0 -25 1 -7 9 28 12 47 12 40 0z m366 -57 c8 -7 21 -13 27 -13 6 0 14 -4 17 -10 4 -6 -4 -6 -22 1 -30 11 -93 48 -93 55 0 6 53 -19 71 -33z m-320 5 c21 -23 26 -39 7 -20 -16 16 -48 15 -48 0 -1 -8 -7 -5 -15 6 -8 10 -12 23 -9 27 10 16 47 9 65 -13z m-1901 -43 c0 -9 -9 -15 -25 -15 -26 0 -34 15 -12 23 23 10 37 7 37 -8z m2313 8 c-7 -2 -19 -2 -25 0 -7 3 -2 5 12 5 14 0 19 -2 13 -5z m-2338 -53 c3 -5 2 -10 -4 -10 -5 0 -13 5 -16 10 -3 6 -2 10 4 10 5 0 13 -4 16 -10z m55 -21 c0 -6 -4 -7 -10 -4 -5 3 -10 11 -10 16 0 6 5 7 10 4 6 -3 10 -11 10 -16z m810 -4 c0 -8 4 -15 10 -15 16 0 82 -63 91 -88 6 -15 15 -22 23 -19 25 10 48 -17 51 -59 1 -21 13 -65 24 -98 12 -32 21 -70 19 -85 -4 -32 -38 -43 -38 -13 0 37 -11 52 -34 46 -17 -4 -24 1 -34 28 -13 34 -70 78 -101 78 -26 0 -30 8 -20 43 6 22 5 33 -4 39 -23 15 -37 8 -51 -27 -9 -20 -26 -39 -39 -44 -25 -10 -37 -29 -37 -62 0 -10 -4 -19 -9 -19 -11 0 -31 55 -31 84 0 44 -21 98 -36 92 -8 -3 -14 1 -14 9 0 19 81 87 97 81 7 -3 15 -1 18 4 4 6 26 10 51 10 32 0 44 4 44 15 0 8 5 15 10 15 6 0 10 -7 10 -15z m-355 -5 c3 -5 2 -10 -4 -10 -5 0 -13 5 -16 10 -3 6 -2 10 4 10 5 0 13 -4 16 -10z m-41 -25 c14 -13 26 -28 26 -33 0 -5 7 -15 15 -22 8 -7 15 -21 15 -30 0 -10 5 -20 10 -22 7 -2 5 -11 -5 -23 -15 -20 -15 -20 -8 0 6 18 5 19 -11 6 -16 -13 -16 -16 -2 -26 27 -20 -3 -35 -71 -35 -35 0 -63 4 -63 9 0 4 -17 8 -37 7 -24 -1 -38 4 -38 11 0 7 -10 20 -22 28 -25 18 -30 49 -10 62 12 8 17 9 37 12 6 0 10 9 10 19 0 57 105 82 154 37z m-384 -39 c24 -4 50 -17 50 -27 0 -5 -8 -9 -17 -9 -15 -1 -14 -4 6 -20 12 -11 27 -17 32 -14 20 12 7 -16 -13 -31 -21 -14 -24 -14 -35 1 -11 14 -17 15 -38 6 -32 -15 -37 -72 -6 -72 18 0 19 -3 12 -40 -3 -13 -41 48 -41 65 0 20 -17 39 -55 61 -10 6 -21 16 -23 23 -3 10 1 11 19 1 24 -11 24 -11 -1 10 l-25 22 25 20 c19 15 32 18 60 13 19 -4 42 -8 50 -9z m509 -138 c1 -63 -8 -72 -34 -32 -19 30 -13 43 11 23 16 -13 17 -9 12 56 -4 42 -3 58 2 40 4 -16 8 -56 9 -87z m1363 59 c-6 -23 -30 -33 -44 -19 -7 7 -3 20 13 41 20 28 24 29 30 14 3 -10 4 -26 1 -36z m-162 4 c0 -11 -25 -21 -53 -21 -21 1 -21 1 3 15 29 16 50 19 50 6z m-1556 -26 c-4 -8 -16 -15 -28 -15 -21 1 -21 1 -2 15 25 19 37 19 30 0z m31 -60 c0 -26 -4 -28 -45 -16 l-25 7 30 17 c39 21 40 21 40 -8z m265 -11 c0 -8 -4 -12 -10 -9 -5 3 -10 13 -10 21 0 8 5 12 10 9 6 -3 10 -13 10 -21z m-364 -52 c-9 -9 -37 8 -31 18 5 8 11 7 21 -1 8 -6 12 -14 10 -17z m1954 -2 c0 -5 -2 -10 -4 -10 -3 0 -8 5 -11 10 -3 6 -1 10 4 10 6 0 11 -4 11 -10z m-1380 -68 c0 -19 -3 -21 -17 -13 -46 26 -46 28 -27 48 17 17 20 17 31 3 7 -8 13 -25 13 -38z m176 -20 c17 -18 35 -24 77 -25 40 -1 53 -5 49 -15 -3 -9 -13 -11 -31 -7 -14 4 -41 9 -59 10 -29 3 -82 45 -82 66 0 13 15 19 19 7 2 -7 14 -23 27 -36z m-85 -72 c18 0 28 -4 24 -10 -10 -16 -61 -11 -77 8 -9 9 -21 28 -28 42 -10 22 -8 21 20 -7 21 -23 40 -33 61 -33z m1361 13 c-4 -55 -12 -54 -12 2 0 27 3 45 7 41 4 -4 6 -23 5 -43z m-1664 20 c-10 -2 -26 -2 -35 0 -10 3 -2 5 17 5 19 0 27 -2 18 -5z m2125 -20 c-7 -2 -21 -2 -30 0 -10 3 -4 5 12 5 17 0 24 -2 18 -5z m-3238 -43 c-6 -9 -9 -9 -16 1 -10 17 0 34 13 21 6 -6 7 -16 3 -22z m2261 -118 c-12 -11 -18 7 -10 30 l8 23 4 -23 c2 -13 1 -26 -2 -30z m-917 -97 c-1 -39 -2 -39 -9 -10 -4 17 -8 41 -9 55 0 20 1 22 9 10 5 -8 9 -33 9 -55z m1336 25 c3 -5 -3 -10 -14 -10 -12 0 -21 5 -21 10 0 6 6 10 14 10 8 0 18 -4 21 -10z m-305 -54 c0 -14 -5 -28 -10 -31 -6 -4 -8 -11 -5 -16 9 -13 -29 -11 -43 3 -9 9 -6 18 15 40 33 34 43 35 43 4z m-1020 -55 c0 -14 -2 -14 -10 -1 -7 12 -12 12 -22 2 -17 -17 -48 -15 -48 4 0 9 6 14 13 11 8 -3 20 -1 27 3 18 11 40 1 40 -19z m-249 -8 c-8 -15 -10 -15 -11 -2 0 17 10 32 18 25 2 -3 -1 -13 -7 -23z m1208 -21 c22 -19 23 -21 4 -12 -12 5 -25 15 -28 20 -4 6 -11 8 -16 5 -5 -4 -9 0 -9 8 0 19 14 31 19 15 2 -7 15 -23 30 -36z m-802 -22 c12 0 26 -7 31 -16 8 -15 14 -15 71 0 39 10 69 13 79 7 9 -5 38 -12 65 -15 83 -12 193 -72 218 -118 8 -14 6 -26 -5 -43 -15 -22 -14 -25 6 -40 21 -14 23 -14 30 4 9 26 45 16 50 -14 7 -32 -5 -48 -29 -41 -15 5 -22 -1 -31 -28 -11 -29 -10 -40 5 -70 13 -28 14 -39 5 -48 -9 -9 -12 -9 -12 1 0 23 -32 81 -45 81 -7 0 -15 -14 -19 -31 -5 -28 -8 -30 -36 -24 -29 6 -44 -9 -17 -18 9 -3 9 -7 -2 -20 -15 -18 -36 -24 -26 -7 4 7 -2 9 -19 4 -19 -4 -28 -2 -32 10 -3 9 -13 16 -21 16 -8 0 -11 5 -8 11 13 20 -36 59 -74 59 -21 0 -31 4 -25 9 17 17 59 15 87 -3 19 -13 31 -15 40 -8 8 7 18 6 31 -4 11 -8 26 -14 35 -14 11 0 9 6 -7 23 -25 26 -28 43 -9 50 9 3 9 9 0 26 -12 18 -10 21 12 27 29 7 32 19 8 34 -13 8 -14 13 -5 16 21 9 14 21 -24 39 -64 30 -115 -6 -80 -57 9 -12 16 -42 16 -66 0 -40 -2 -43 -22 -37 -29 8 -58 42 -58 66 0 13 -19 27 -65 49 -35 16 -72 30 -82 30 -34 0 -46 15 -32 38 7 12 10 24 7 28 -8 7 -46 9 -68 3 -11 -3 -14 3 -12 26 3 28 3 29 -14 13 -15 -15 -19 -15 -40 -2 -28 19 -35 8 -27 -41 l6 -38 14 27 c8 15 20 25 26 23 14 -4 16 -53 4 -79 -9 -22 -27 -24 -27 -3 0 8 -7 15 -15 15 -13 0 -15 -7 -9 -37 7 -43 7 -39 4 -73 -2 -25 -2 -25 -15 5 -18 40 -20 76 -11 165 9 83 18 100 51 100 12 0 30 9 41 21 l19 21 20 -26 c11 -14 30 -26 42 -26z m-308 -1 c6 -18 10 -64 10 -103 l-2 -71 -7 55 c-12 93 -20 130 -30 130 -6 0 -10 5 -10 10 0 23 29 7 39 -21z m1105 -8 c-2 -3 -12 3 -22 13 -16 17 -16 18 5 5 12 -7 20 -15 17 -18z m-1244 -11 c-12 -17 -30 -30 -43 -30 -19 0 -17 3 13 30 45 38 57 38 30 0z m109 -137 l66 -67 6 39 c6 36 6 34 8 -20 l1 -60 -25 25 c-14 14 -30 30 -35 35 -6 6 -24 29 -41 53 -17 23 -37 42 -45 42 -8 0 -14 5 -14 10 0 19 13 10 79 -57z m252 -30 c-8 -15 -10 -15 -11 -2 0 17 10 32 18 25 2 -3 -1 -13 -7 -23z m1289 -18 c7 -9 8 -15 2 -15 -5 0 -12 7 -16 15 -3 8 -4 15 -2 15 2 0 9 -7 16 -15z m-1463 -97 c-3 -8 -6 -5 -6 6 -1 11 2 17 5 13 3 -3 4 -12 1 -19z m1643 12 c0 -5 -2 -10 -4 -10 -3 0 -8 5 -11 10 -3 6 -1 10 4 10 6 0 11 -4 11 -10z m-1520 -24 c0 -7 -7 -19 -15 -26 -10 -9 -15 -9 -15 -1 0 6 4 11 10 11 5 0 7 7 4 15 -4 8 -1 15 5 15 6 0 11 -6 11 -14z m1094 -57 c28 0 56 -17 56 -36 0 -15 -2 -15 -18 0 -24 22 -32 21 -32 -3 0 -14 -11 -22 -39 -31 -40 -12 -71 -8 -71 10 0 5 9 11 20 14 14 4 20 14 20 32 0 24 3 26 23 20 12 -4 31 -7 41 -6z m107 -64 c0 -13 -41 -19 -41 -7 0 11 20 22 33 18 5 -1 8 -6 8 -11z m203 -2 c13 -48 17 -83 8 -83 -12 0 -32 46 -32 75 0 29 16 34 24 8z m-805 -19 c2 -2 -19 -4 -48 -4 -29 0 -50 4 -47 9 5 8 85 4 95 -5z m477 -31 c-10 -10 -19 5 -10 18 6 11 8 11 12 0 2 -7 1 -15 -2 -18z m804 19 c0 -12 -28 -48 -33 -42 -8 8 11 50 23 50 5 0 10 -4 10 -8z m-845 -43 c10 -15 -1 -23 -20 -15 -9 3 -13 10 -10 16 8 13 22 13 30 -1z m-495 -14 c0 -9 6 -12 15 -9 9 4 18 -1 21 -11 4 -9 12 -14 20 -11 7 3 18 -2 24 -10 7 -8 10 -15 6 -15 -3 -1 -9 -2 -13 -4 -51 -13 -63 -18 -63 -24 0 -4 -7 -16 -16 -27 -15 -18 -15 -18 -9 9 3 15 1 27 -4 27 -5 0 -7 9 -4 20 3 11 2 27 -1 37 -6 15 -10 13 -31 -12 -13 -17 -24 -36 -25 -42 0 -7 -5 -13 -11 -13 -5 0 -7 5 -4 10 3 6 -1 10 -9 10 -14 0 -48 -50 -45 -67 1 -4 0 -19 -1 -33 -2 -18 -4 -20 -7 -7 -12 47 -53 -9 -53 -73 0 -23 -4 -27 -23 -23 -30 6 -43 -23 -53 -116 -3 -39 -11 -71 -15 -71 -5 0 -9 11 -9 24 0 33 -20 44 -37 20 -11 -15 -13 -38 -8 -105 5 -73 4 -89 -11 -103 -13 -13 -15 -27 -10 -62 4 -30 2 -43 -5 -39 -23 15 -32 66 -38 205 -6 150 -6 149 -55 215 -6 8 3 32 25 69 20 34 35 51 37 41 2 -10 13 -14 33 -13 23 2 31 10 44 40 8 20 26 45 40 54 28 18 105 28 105 13 0 -5 4 -9 9 -9 5 0 7 10 5 23 -2 12 -2 16 2 10 7 -16 24 -17 24 -2 0 17 32 38 58 39 12 0 22 4 22 9 0 16 31 41 51 41 10 0 19 -7 19 -15z m738 -5 c12 -20 12 -21 -13 -4 -28 18 -31 24 -12 24 7 0 18 -9 25 -20z m517 -39 c3 -5 1 -12 -5 -16 -5 -3 -10 1 -10 9 0 18 6 21 15 7z m-402 -43 c-2 -5 -8 -8 -14 -8 -11 0 -12 33 -2 44 8 8 23 -25 16 -36z m-298 12 c3 -5 1 -10 -4 -10 -6 0 -11 5 -11 10 0 6 2 10 4 10 3 0 8 -4 11 -10z m-965 -20 c0 -5 -2 -10 -4 -10 -3 0 -8 5 -11 10 -3 6 -1 10 4 10 6 0 11 -4 11 -10z m1204 -10 c-22 -9 -29 -6 -20 9 4 6 14 7 23 4 15 -6 14 -7 -3 -13z m-711 -35 c4 -8 3 -16 -1 -19 -10 -6 -43 20 -35 27 11 12 31 8 36 -8z m768 -18 c-1 -12 -15 -9 -19 4 -3 6 1 10 8 8 6 -3 11 -8 11 -12z m-1578 -25 c10 -9 17 -29 17 -49 0 -18 3 -32 8 -32 24 4 35 -5 52 -43 11 -24 20 -38 20 -33 0 6 5 3 10 -5 8 -12 10 -10 10 10 1 24 1 24 15 6 8 -10 12 -22 10 -26 -3 -4 11 -59 31 -121 23 -74 32 -115 25 -117 -18 -6 -13 -38 9 -53 26 -19 38 -125 17 -154 -13 -17 -14 -14 -10 36 4 49 2 59 -22 87 -23 28 -27 42 -30 110 -2 79 -27 158 -45 147 -5 -3 -10 -20 -10 -36 0 -48 -17 -24 -25 34 -10 71 -32 124 -56 130 -11 3 -19 14 -19 27 0 30 -28 80 -45 80 -8 0 -15 7 -15 15 0 17 25 11 53 -13z m-143 3 c7 -9 11 -17 9 -19 -7 -7 -49 13 -49 24 0 15 26 12 40 -5z m840 6 c0 -5 -7 -14 -15 -21 -12 -10 -15 -10 -15 2 0 8 3 18 7 21 9 10 23 9 23 -2z m675 0 c7 -12 -12 -24 -25 -16 -11 7 -4 25 10 25 5 0 11 -4 15 -9z m259 -88 c4 -44 2 -74 -4 -78 -6 -4 -10 9 -10 32 0 21 -3 63 -6 93 -3 36 -2 50 4 40 5 -8 12 -47 16 -87z m-799 -11 c27 -5 55 -32 55 -52 0 -10 7 -23 15 -30 8 -7 15 -19 15 -28 0 -20 29 -52 48 -52 8 0 12 -6 9 -14 -3 -8 1 -20 10 -27 13 -11 17 -10 28 4 7 9 17 17 24 17 6 0 10 3 10 8 -4 26 3 34 26 30 14 -3 25 -1 25 3 0 14 70 10 74 -3 1 -7 10 -35 19 -63 10 -30 12 -51 7 -53 -29 -10 -2 -26 65 -38 17 -4 39 -11 50 -17 11 -7 29 -12 40 -12 11 0 29 -15 42 -35 27 -40 83 -71 83 -45 0 8 6 12 14 9 8 -3 17 3 20 14 14 44 31 44 64 -1 17 -24 45 -59 62 -77 25 -26 33 -46 37 -86 4 -33 1 -54 -6 -58 -15 -10 -14 -47 3 -109 21 -76 29 -208 16 -256 -15 -57 -28 -43 -22 24 4 47 1 62 -17 86 -14 19 -25 54 -31 104 -10 77 -23 115 -40 115 -6 0 -10 -9 -10 -19 0 -11 -4 -22 -9 -25 -9 -6 -17 11 -43 88 -7 21 -24 48 -38 60 -14 11 -32 36 -39 54 -7 17 -20 32 -27 32 -8 0 -20 16 -28 35 -8 19 -19 35 -24 35 -17 0 -20 -38 -6 -66 33 -63 -2 -60 -66 7 -43 45 -50 49 -56 33 -3 -11 -11 -29 -17 -42 -9 -18 -7 -26 11 -45 12 -13 22 -32 22 -44 0 -25 24 -47 75 -69 37 -15 39 -17 18 -25 -35 -13 -27 -36 21 -64 36 -21 44 -31 43 -53 -2 -23 7 -31 68 -64 74 -40 135 -99 135 -130 0 -25 -9 -23 -47 14 -18 17 -35 29 -39 26 -12 -12 7 -46 56 -102 28 -32 50 -60 50 -64 0 -4 13 -15 29 -25 34 -20 47 -72 32 -125 -8 -25 -6 -41 8 -73 10 -22 22 -39 27 -37 5 2 12 -22 16 -52 5 -42 3 -61 -10 -82 -13 -23 -14 -35 -5 -68 6 -22 6 -43 2 -46 -5 -3 -9 4 -9 16 0 28 -26 36 -49 16 -22 -20 -31 -12 -31 29 0 57 -12 94 -32 101 -10 3 -31 24 -46 47 -15 23 -32 46 -39 50 -7 4 -13 19 -13 32 0 37 -10 55 -31 55 -12 0 -28 14 -41 36 -15 25 -24 32 -32 24 -7 -7 -7 -19 2 -42 9 -25 9 -34 0 -39 -12 -8 -62 13 -73 31 -3 5 -13 10 -21 10 -16 0 -19 -36 -3 -46 6 -3 9 -17 6 -30 -3 -17 4 -31 25 -49 24 -21 28 -32 23 -55 -5 -22 -1 -32 20 -48 14 -11 31 -22 38 -25 9 -3 9 -10 -1 -32 -12 -26 -11 -29 32 -69 34 -31 43 -45 36 -57 -6 -10 -5 -30 2 -53 10 -30 9 -43 -5 -72 -9 -19 -17 -50 -17 -70 0 -28 5 -36 27 -45 33 -12 42 -25 44 -59 1 -23 2 -23 8 5 4 17 3 39 -2 50 -6 11 14 -4 44 -33 54 -52 54 -52 38 -80 -9 -15 -21 -26 -27 -24 -17 3 -15 -20 8 -72 13 -31 25 -46 38 -46 21 0 62 -43 62 -65 0 -8 12 -39 27 -70 26 -53 27 -57 11 -88 -9 -17 -19 -40 -22 -51 -5 -15 -9 -16 -21 -6 -11 9 -15 35 -15 107 l0 94 -34 14 c-23 10 -36 23 -41 42 -3 15 -18 37 -31 50 -14 13 -22 28 -18 34 3 6 -7 25 -24 42 -16 18 -32 45 -36 60 -13 57 -66 41 -66 -19 0 -19 -3 -34 -6 -34 -20 0 -44 24 -44 44 0 23 -25 54 -36 44 -3 -3 -7 -22 -11 -41 -4 -26 -1 -41 11 -52 10 -10 16 -30 14 -49 -1 -22 5 -39 20 -54 12 -12 22 -25 23 -29 1 -11 7 -78 14 -143 3 -30 0 -100 -8 -155 -10 -70 -11 -106 -4 -120 10 -19 10 -19 18 0 4 11 8 37 8 57 1 21 7 58 13 84 l13 46 42 -6 c45 -6 93 -31 93 -48 0 -5 -9 -17 -21 -26 -28 -24 -18 -43 42 -78 46 -26 87 -76 81 -97 -1 -4 2 -17 8 -27 9 -16 7 -20 -5 -20 -8 0 -15 7 -15 15 0 18 -75 69 -89 60 -31 -19 21 -116 78 -144 21 -11 45 -31 54 -45 9 -13 25 -27 36 -31 29 -9 46 -58 32 -95 -5 -17 -8 -44 -4 -60 3 -19 1 -30 -6 -30 -6 0 -11 -7 -11 -15 0 -8 -4 -15 -10 -15 -17 0 -11 -40 8 -46 40 -13 65 -30 75 -52 9 -19 7 -25 -10 -37 -12 -8 -24 -29 -28 -45 -14 -64 -47 -21 -51 67 -2 37 -11 76 -19 90 -16 24 -49 31 -60 13 -12 -19 -24 -10 -52 40 -15 27 -31 50 -35 50 -8 0 -100 117 -117 149 -7 13 -10 33 -7 45 3 11 1 28 -4 35 -5 8 -4 25 1 39 13 34 5 38 -36 19 -39 -19 -51 -10 -46 35 3 30 -7 36 -28 16 -6 -7 -24 -13 -39 -13 -21 0 -30 -7 -41 -31 -11 -27 -71 -65 -71 -45 0 3 -14 12 -31 18 -27 10 -30 16 -25 37 3 14 2 27 -2 30 -5 3 -10 36 -11 73 -2 85 -5 95 -48 155 -32 45 -34 51 -23 78 15 37 8 57 -25 70 -14 5 -25 16 -25 25 0 8 -5 15 -10 15 -6 0 -9 -5 -8 -11 4 -16 -14 -21 -32 -9 -13 8 -11 12 8 26 21 15 22 18 8 39 -14 22 -14 23 12 28 44 9 97 50 100 78 2 18 13 31 38 42 35 17 44 43 23 64 -9 9 -2 16 26 27 38 16 64 41 65 63 0 6 14 25 31 42 34 34 30 56 -8 46 -21 -5 -24 -3 -18 15 5 14 2 20 -9 20 -9 0 -16 -8 -16 -17 0 -17 -37 -63 -50 -63 -12 0 2 54 18 73 14 15 13 17 -6 17 -17 0 -22 6 -22 25 0 40 -29 31 -47 -15 -13 -33 -20 -39 -37 -34 -23 5 -37 -12 -51 -63 -4 -13 -14 -23 -23 -23 -27 0 -62 -41 -62 -74 0 -41 -15 -65 -23 -37 -3 15 -13 21 -31 21 -15 0 -26 6 -26 14 0 7 -6 19 -14 25 -11 9 -15 5 -20 -23 -4 -20 -16 -41 -31 -50 -31 -20 -33 -52 -4 -59 24 -6 21 -32 -4 -32 -9 0 -22 -6 -29 -13 -6 -6 -18 -12 -25 -12 -16 0 -17 -45 -1 -103 10 -40 3 -101 -9 -69 -3 6 -11 12 -19 12 -10 0 -14 -13 -14 -42 l-1 -43 -18 52 c-11 28 -22 96 -26 150 -6 73 -13 104 -26 122 -22 27 -20 38 22 129 16 34 29 71 29 82 0 11 16 34 35 51 23 21 35 40 35 58 0 32 32 86 59 101 12 6 21 19 21 29 0 10 9 28 20 41 11 13 20 26 20 30 0 10 -79 9 -85 -1 -3 -4 -20 -3 -37 2 -25 7 -36 5 -50 -8 -17 -15 -18 -15 -18 1 0 9 8 19 18 23 9 3 25 13 35 22 10 8 30 15 45 16 17 0 27 5 27 15 0 19 -41 26 -60 10 -8 -6 -19 -9 -25 -5 -18 11 -11 43 16 64 15 12 25 21 23 22 -2 1 -24 2 -48 3 -40 2 -45 0 -57 -28 -10 -25 -13 -27 -14 -10 0 11 17 37 38 56 20 20 43 43 51 53 7 9 19 14 27 11 11 -4 14 4 14 34 0 22 -4 40 -10 40 -23 0 -8 30 25 50 43 27 70 71 52 89 -8 8 -2 20 26 47 21 20 37 46 37 58 0 12 14 35 30 51 32 31 38 50 18 58 -9 3 -4 14 15 34 46 49 30 83 -22 46 -24 -16 -24 -16 -17 12 6 25 6 26 -9 11 -9 -9 -15 -22 -13 -28 3 -7 1 -17 -4 -23 -5 -5 -15 -19 -23 -30 -14 -19 -14 -17 -9 15 4 19 11 39 15 44 5 6 9 16 9 23 0 10 -5 11 -19 3 -28 -15 -31 -13 -31 20 0 45 -27 38 -41 -10 -8 -27 -18 -40 -30 -40 -19 0 -26 -15 -34 -74 -4 -37 -15 -63 -15 -38 0 21 -28 13 -36 -10 -4 -13 -7 -52 -6 -88 1 -64 1 -64 -12 -30 -7 19 -19 35 -26 35 -21 0 -28 -41 -22 -132 3 -53 1 -83 -5 -83 -6 0 -13 18 -17 39 -7 44 -23 61 -37 40 -5 -8 -8 -61 -7 -119 2 -109 -10 -192 -27 -191 -23 0 -48 106 -51 219 -3 94 -7 119 -24 142 -27 38 -25 50 13 101 58 75 72 113 40 103 -10 -4 -1 10 19 30 42 41 56 75 38 86 -9 6 -6 16 14 36 19 20 26 36 22 54 -2 14 3 34 14 48 11 13 16 30 13 38 -3 8 2 25 11 39 9 13 16 29 16 35 0 19 -29 22 -46 5 -13 -13 -19 -14 -25 -3 -6 9 -10 6 -17 -12 -9 -23 -10 -22 -17 18 l-7 43 -25 -16 c-14 -9 -27 -14 -31 -11 -11 11 42 56 67 57 l26 1 -25 7 c-14 4 -26 4 -28 -1 -2 -4 -10 -8 -18 -8 -8 0 -14 -4 -14 -9 0 -5 -13 -19 -29 -31 l-30 -20 15 28 c8 16 44 59 80 96 56 55 65 70 60 91 -5 20 -1 27 21 39 16 8 39 26 53 41 24 25 24 27 7 40 -17 12 -15 15 25 42 36 24 43 34 43 62 0 25 5 36 21 42 12 4 25 13 30 20 5 8 11 -1 19 -27 7 -26 17 -40 30 -42z m-698 -4 c-3 -8 -6 -5 -6 6 -1 11 2 17 5 13 3 -3 4 -12 1 -19z m1763 12 c0 -5 -9 -10 -21 -10 -11 0 -17 5 -14 10 3 6 13 10 21 10 8 0 14 -4 14 -10z m-1260 -19 c0 -5 -6 -14 -14 -20 -12 -10 -13 -8 -9 8 5 21 23 30 23 12z m-730 -16 c7 -9 10 -18 7 -22 -8 -7 -37 15 -37 28 0 14 16 11 30 -6z m607 -7 c-3 -8 -6 -5 -6 6 -1 11 2 17 5 13 3 -3 4 -12 1 -19z m999 -14 c28 -16 44 -33 44 -45 0 -10 -5 -19 -12 -19 -17 0 -97 63 -98 78 0 18 17 15 66 -14z m340 -49 c-21 -16 -32 -13 -21 4 3 6 14 11 23 11 15 -1 15 -2 -2 -15z m-1307 -36 c-16 -10 -23 -4 -14 10 3 6 11 8 17 5 6 -4 5 -9 -3 -15z m-676 4 c-7 -2 -19 -2 -25 0 -7 3 -2 5 12 5 14 0 19 -2 13 -5z m1750 -13 c3 -11 1 -18 -4 -14 -5 3 -9 12 -9 20 0 20 7 17 13 -6z m-1611 -20 c43 -39 23 -39 -22 0 -19 16 -29 30 -23 30 7 0 27 -13 45 -30z m1803 0 c-3 -5 -10 -10 -16 -10 -5 0 -9 5 -9 10 0 6 7 10 16 10 8 0 12 -4 9 -10z m-200 -137 c5 -14 3 -15 -6 -6 -6 6 -19 9 -28 6 -14 -4 -14 -3 -1 6 21 15 27 14 35 -6z m-1505 -3 c8 -5 11 -10 5 -10 -5 0 -17 5 -25 10 -8 5 -10 10 -5 10 6 0 17 -5 25 -10z m2055 -129 c0 -8 -10 -17 -22 -22 -19 -7 -23 -5 -23 10 0 10 3 21 7 25 11 11 38 2 38 -13z m-1735 -40 c0 -5 -7 -12 -16 -15 -14 -5 -15 -4 -4 9 14 17 20 19 20 6z m954 -70 c17 -18 24 -31 17 -35 -21 -13 -79 33 -66 54 10 16 19 12 49 -19z m716 10 c0 -5 -7 -14 -15 -21 -12 -10 -15 -10 -15 2 0 8 3 18 7 21 9 10 23 9 23 -2z m-630 -106 c20 -24 -1 -38 -28 -19 -12 8 -22 19 -22 25 0 15 36 10 50 -6z m570 -5 c0 -5 -7 -10 -15 -10 -8 0 -15 5 -15 10 0 6 7 10 15 10 8 0 15 -4 15 -10z m-110 -140 c0 -5 -7 -10 -15 -10 -8 0 -15 5 -15 10 0 6 7 10 15 10 8 0 15 -4 15 -10z m-1625 -10 c3 -5 2 -10 -4 -10 -5 0 -13 5 -16 10 -3 6 -2 10 4 10 5 0 13 -4 16 -10z m45 -40 c0 -5 -2 -10 -4 -10 -3 0 -8 5 -11 10 -3 6 -1 10 4 10 6 0 11 -4 11 -10z m123 -5 c-3 -9 -8 -14 -10 -11 -3 3 -2 9 2 15 9 16 15 13 8 -4z m367 -25 c0 -5 -4 -10 -10 -10 -5 0 -10 5 -10 10 0 6 5 10 10 10 6 0 10 -4 10 -10z m-50 -104 c0 -3 -4 -8 -10 -11 -5 -3 -10 -1 -10 4 0 6 5 11 10 11 6 0 10 -2 10 -4z m30 -60 c0 -3 -4 -8 -10 -11 -5 -3 -10 -1 -10 4 0 6 5 11 10 11 6 0 10 -2 10 -4z m1280 -30 c0 -8 -4 -17 -9 -20 -10 -7 -23 19 -14 28 11 11 23 6 23 -8z m-50 -102 c0 -9 -5 -14 -12 -12 -18 6 -21 28 -4 28 9 0 16 -7 16 -16z m-25 -92 c-3 -3 -11 0 -18 7 -9 10 -8 11 6 5 10 -3 15 -9 12 -12z m-45 -11 c0 -5 -6 -13 -13 -19 -15 -13 -42 1 -33 17 8 13 46 15 46 2z m-1703 -23 c-3 -8 -6 -5 -6 6 -1 11 2 17 5 13 3 -3 4 -12 1 -19z m1961 -25 c-5 -25 -28 -28 -28 -4 0 12 6 21 16 21 9 0 14 -7 12 -17z m-818 -19 c0 -14 -12 -19 -23 -8 -9 9 4 35 14 28 5 -3 9 -12 9 -20z m756 -111 c-10 -10 -19 5 -10 18 6 11 8 11 12 0 2 -7 1 -15 -2 -18z m-706 7 c0 -5 -2 -10 -4 -10 -3 0 -8 5 -11 10 -3 6 -1 10 4 10 6 0 11 -4 11 -10z m-1059 -47 c-8 -15 -10 -15 -11 -2 0 17 10 32 18 25 2 -3 -1 -13 -7 -23z m229 -11 c0 -4 -9 -13 -20 -20 -22 -13 -27 -3 -8 16 14 14 28 16 28 4z m1465 -31 c7 -12 -12 -24 -25 -16 -11 7 -4 25 10 25 5 0 11 -4 15 -9z m-359 -135 c4 -37 2 -62 -6 -71 -16 -20 -30 -10 -30 21 0 29 21 117 26 111 3 -2 7 -30 10 -61z m384 49 c0 -8 -9 -15 -20 -15 -22 0 -27 15 -7 23 21 9 27 7 27 -8z m-508 -168 c72 -81 55 -110 -24 -41 -59 53 -68 63 -68 83 0 25 53 1 92 -42z m357 -71 c5 -13 16 -26 24 -29 9 -3 17 -16 19 -29 2 -15 11 -24 26 -26 12 -2 23 -8 24 -13 4 -29 1 -33 -34 -34 -36 -2 -38 0 -38 31 0 36 -13 44 -52 33 -23 -6 -28 -5 -28 11 0 21 31 80 43 80 4 0 12 -11 16 -24z m-834 -16 c7 -12 -12 -40 -26 -40 -10 0 -12 34 -2 43 9 10 21 9 28 -3z m-986 -31 c40 -24 30 -45 -18 -34 -35 7 -45 19 -37 40 7 20 15 19 55 -6z m1721 -35 c0 -11 -5 -14 -16 -10 -9 3 -18 6 -20 6 -3 0 -2 5 1 10 10 16 35 12 35 -6z m90 -44 c0 -11 -4 -20 -10 -20 -5 0 -10 9 -10 20 0 11 5 20 10 20 6 0 10 -9 10 -20z m-918 -5 c0 -5 -5 -11 -11 -13 -6 -2 -11 4 -11 13 0 9 5 15 11 13 6 -2 11 -8 11 -13z m-803 -29 c31 -33 10 -43 -34 -16 -19 12 -35 26 -35 31 0 18 47 8 69 -15z m611 -10 c0 -22 -11 -46 -21 -46 -5 0 -9 14 -9 30 0 20 5 30 15 30 8 0 15 -6 15 -14z m1200 -10 c0 -3 -4 -8 -10 -11 -5 -3 -10 -1 -10 4 0 6 5 11 10 11 6 0 10 -2 10 -4z m326 -17 c3 -6 2 -15 -3 -20 -14 -14 -43 0 -36 17 6 17 29 19 39 3z m-926 -39 c0 -19 -11 -26 -23 -14 -8 8 3 34 14 34 5 0 9 -9 9 -20z m-516 1 c3 -5 -1 -11 -9 -15 -9 -3 -15 0 -15 9 0 16 16 20 24 6z m-122 -26 c3 -14 1 -25 -3 -25 -5 0 -9 11 -9 25 0 14 2 25 4 25 2 0 6 -11 8 -25z m1218 10 c0 -8 -4 -15 -10 -15 -5 0 -10 7 -10 15 0 8 5 15 10 15 6 0 10 -7 10 -15z m-1695 -17 c24 -13 45 -26 45 -30 0 -13 -25 -9 -46 7 -10 8 -29 15 -41 15 -14 0 -23 6 -23 15 0 20 12 19 65 -7z m1975 -16 c0 -13 -12 -22 -22 -16 -10 6 -1 24 13 24 5 0 9 -4 9 -8z m-1995 -72 c3 -5 -3 -10 -14 -10 -12 0 -21 5 -21 10 0 6 6 10 14 10 8 0 18 -4 21 -10z m1190 -20 c-5 -8 -11 -8 -17 -2 -6 6 -7 16 -3 22 5 8 11 8 17 2 6 -6 7 -16 3 -22z m853 -9 c3 -8 -1 -12 -9 -9 -7 2 -15 10 -17 17 -3 8 1 12 9 9 7 -2 15 -10 17 -17z m-1424 -16 c-7 -16 -24 -21 -24 -6 0 8 7 13 27 20 1 1 0 -6 -3 -14z m1366 -74 c0 -26 -17 -36 -35 -21 -18 15 -8 40 16 40 12 0 19 -7 19 -19z m-720 -1 c0 -5 -4 -10 -10 -10 -5 0 -10 5 -10 10 0 6 5 10 10 10 6 0 10 -4 10 -10z m-624 -20 c12 11 18 10 32 -4 16 -16 16 -17 -6 -22 -25 -7 -30 -24 -7 -24 9 0 18 -6 21 -14 3 -8 14 -16 25 -19 25 -7 25 -27 0 -27 -11 0 -26 -3 -35 -6 -12 -5 -16 0 -17 17 l0 24 -9 -22 c-11 -26 -40 -31 -40 -7 0 11 -6 15 -20 11 -13 -3 -24 1 -30 13 -15 28 -12 38 15 66 21 21 29 23 40 14 12 -10 18 -10 31 0z m-346 -130 c0 -5 -5 -10 -11 -10 -5 0 -7 5 -4 10 3 6 8 10 11 10 2 0 4 -4 4 -10z m1550 -38 c-1 -25 -35 -66 -49 -58 -15 10 -14 16 9 54 20 33 40 35 40 4z m-169 -65 c-8 -8 -11 -5 -11 9 0 27 14 41 18 19 2 -9 -1 -22 -7 -28z m-214 18 c8 -22 -6 -33 -17 -15 -13 20 -12 30 0 30 6 0 13 -7 17 -15z m-794 -103 c8 -10 7 -16 -4 -23 -18 -11 -20 -11 -42 5 -16 12 -17 18 -6 38 25 48 34 54 37 22 2 -16 9 -35 15 -42z m1040 3 c-3 -8 -9 -15 -14 -15 -10 0 -12 24 -3 33 11 11 24 -3 17 -18z m-1090 -76 c-7 -24 11 -62 47 -100 27 -28 66 -43 76 -28 9 15 34 10 34 -6 0 -8 -6 -12 -12 -10 -27 10 -39 -14 -49 -101 -12 -93 -23 -129 -40 -119 -5 4 -9 17 -9 29 0 13 -7 30 -16 37 -14 11 -19 10 -35 -10 l-18 -23 1 36 c1 19 -6 46 -15 60 -10 14 -17 35 -17 47 0 12 -7 30 -16 40 -14 15 -14 20 0 54 11 26 13 42 6 50 -9 10 9 27 67 64 0 1 -1 -8 -4 -20z m1045 -37 c2 -12 -1 -22 -7 -22 -13 0 -32 35 -24 44 12 12 28 0 31 -22z m-1428 -102 c0 -5 -7 -10 -16 -10 -8 0 -12 5 -9 10 3 6 10 10 16 10 5 0 9 -4 9 -10z m863 -10 c-3 -11 -9 -20 -14 -20 -10 0 -12 24 -2 33 13 13 21 7 16 -13z m447 10 c0 -5 -7 -10 -16 -10 -8 0 -12 5 -9 10 3 6 10 10 16 10 5 0 9 -4 9 -10z m-1559 -16 c11 -14 10 -15 -11 -12 -13 1 -25 9 -28 16 -5 17 23 15 39 -4z m551 -29 c8 -33 -3 -51 -26 -42 -10 4 -16 18 -16 35 0 51 29 56 42 7z m1362 -1 c8 -20 -21 -67 -34 -59 -11 7 -13 58 -3 68 12 12 31 7 37 -9z m-137 -59 c-15 -16 -22 -11 -13 10 3 9 10 13 16 10 6 -4 5 -11 -3 -20z m160 -72 c-13 -13 -16 -11 -25 16 -6 17 -17 31 -24 31 -7 1 1 7 17 14 29 12 30 12 38 -17 6 -22 4 -34 -6 -44z m-927 57 c0 -5 -7 -10 -15 -10 -8 0 -15 5 -15 10 0 6 7 10 15 10 8 0 15 -4 15 -10z m-667 -27 c19 -37 29 -93 17 -93 -22 0 -58 89 -45 110 9 15 13 12 28 -17z m667 -12 c0 -31 -45 -71 -81 -71 -31 0 -32 0 -14 20 10 11 23 20 30 20 6 0 22 11 35 25 28 30 30 30 30 6z m850 1 c0 -13 -12 -22 -22 -16 -10 6 -1 24 13 24 5 0 9 -4 9 -8z m-1266 -85 c9 -21 20 -36 25 -33 5 4 12 2 15 -3 4 -5 2 -12 -4 -16 -5 -3 -10 -20 -10 -36 0 -47 -22 -30 -42 32 -9 30 -17 72 -17 94 0 43 2 41 33 -38z m531 53 c3 -5 -1 -10 -9 -10 -9 0 -16 5 -16 10 0 6 4 10 9 10 6 0 13 -4 16 -10z m615 -16 c0 -8 -5 -22 -11 -32 -9 -14 -8 -25 5 -50 35 -67 5 -117 -32 -53 -9 17 -25 32 -34 35 -10 2 -18 12 -18 22 0 21 28 54 47 54 7 0 13 8 13 18 0 10 3 22 6 25 10 9 24 -2 24 -19z m84 -37 c14 -14 4 -57 -13 -57 -15 0 -29 31 -24 51 6 22 19 24 37 6z m-564 -7 c0 -5 -4 -10 -10 -10 -5 0 -10 5 -10 10 0 6 5 10 10 10 6 0 10 -4 10 -10z m-1008 -62 c-9 -9 -15 -9 -24 0 -9 9 -7 12 12 12 19 0 21 -3 12 -12z" fill="#bdf0e6"/>
<path d="M1517 7055 c3 -9 -1 -23 -9 -33 -38 -45 -54 -141 -26 -158 6 -4 34 2 64 12 38 13 54 23 54 36 0 16 -11 23 -32 19 -17 -2 -7 18 10 21 11 2 13 6 5 11 -6 4 -29 -8 -53 -28 -65 -54 -68 -47 -10 20 42 48 47 64 30 96 -13 23 -42 26 -33 4z" fill="#bdf0e6"/>
<path d="M1802 6963 c-19 -9 -36 -23 -39 -30 -4 -9 -15 -12 -39 -7 -56 10 -63 3 -51 -55 5 -28 15 -51 21 -51 23 0 67 51 61 71 -8 25 6 24 28 -1 24 -28 52 -25 72 8 10 15 27 35 39 44 l21 17 -28 10 c-37 14 -46 14 -85 -6z" fill="#bdf0e6"/>
<path d="M1398 6823 c-10 -2 -24 -26 -34 -60 -16 -52 -16 -58 -1 -107 20 -60 17 -122 -8 -139 -15 -12 -15 -14 -1 -26 9 -8 16 -20 16 -27 0 -19 74 -18 94 1 8 8 18 15 22 15 11 0 44 42 44 57 0 17 -11 17 -38 -3 -21 -15 -25 -15 -43 2 -18 16 -19 16 -19 -9 0 -33 -13 -35 -26 -4 -14 31 -6 57 16 57 10 0 22 4 25 10 10 16 73 42 86 35 14 -10 29 13 29 45 0 18 -3 21 -9 11 -7 -11 -10 -11 -17 0 -4 7 -3 14 4 17 17 5 15 32 -2 38 -8 3 -22 16 -30 30 -14 20 -14 23 -1 18 8 -4 15 -1 15 5 0 7 10 16 23 21 17 7 7 9 -40 9 -34 1 -67 3 -75 5 -7 2 -21 2 -30 -1z" fill="#bdf0e6"/>
<path d="M1661 6737 c-15 -38 -14 -56 5 -108 9 -26 13 -57 9 -76 -6 -31 0 -38 28 -34 4 0 7 -3 7 -8 0 -17 44 -20 62 -4 27 25 22 46 -29 119 -25 36 -52 83 -59 103 l-12 36 -11 -28z" fill="#bdf0e6"/>
<path d="M1096 6725 c-10 -8 -23 -12 -27 -9 -5 3 -9 1 -9 -5 0 -10 79 -81 90 -81 3 0 16 9 28 20 12 12 22 19 22 16 0 -3 14 0 30 5 37 13 38 24 3 27 -15 1 -35 11 -45 22 -22 23 -65 26 -92 5z" fill="#bdf0e6"/>
<path d="M1290 6643 c0 -25 15 -38 25 -22 4 6 0 18 -9 27 -15 15 -16 15 -16 -5z" fill="#bdf0e6"/>
<path d="M943 6504 c-8 -4 -11 -15 -7 -29 5 -20 1 -25 -19 -31 -14 -3 -30 -3 -36 0 -6 4 -9 -5 -8 -20 2 -18 19 -41 55 -72 l53 -46 -7 52 c-6 49 -5 52 20 62 15 5 48 10 73 10 46 0 46 0 28 20 -34 37 -120 68 -152 54z" fill="#bdf0e6"/>
<path d="M1250 6397 c0 -74 29 -84 105 -36 l48 30 -20 21 c-12 12 -26 17 -33 13 -9 -6 -9 -10 1 -16 11 -7 9 -9 -6 -9 -17 0 -17 -2 -5 -10 10 -7 11 -10 2 -10 -7 0 -17 11 -23 24 -10 21 -35 35 -61 36 -5 0 -8 -19 -8 -43z" fill="#bdf0e6"/>
<path d="M1078 6417 c-43 -8 -47 -11 -42 -32 4 -16 -1 -30 -16 -45 -24 -24 -22 -38 21 -123 16 -31 29 -59 29 -62 0 -3 -15 -5 -32 -5 -36 0 -67 -15 -55 -26 9 -9 99 -22 115 -16 6 2 25 25 41 51 17 26 43 53 57 60 23 10 30 8 66 -21 39 -31 39 -50 1 -30 -27 15 -57 -9 -40 -31 15 -19 80 -37 97 -27 15 9 40 2 40 -11 0 -5 -13 -9 -30 -9 -31 0 -36 -6 -21 -29 7 -10 13 -11 30 -2 21 12 31 -2 11 -14 -9 -6 16 -43 78 -113 15 -17 22 -21 18 -10 -3 10 -1 20 3 22 5 3 11 33 15 67 6 51 4 64 -10 80 -10 11 -23 18 -30 15 -20 -8 -95 75 -88 96 3 11 -1 30 -10 43 -15 23 -14 24 29 48 l44 25 10 -31 c5 -18 12 -50 16 -71 l6 -39 22 33 c42 65 47 74 36 85 -7 7 -13 5 -19 -5 -7 -11 -10 -11 -10 -2 0 7 11 25 24 39 26 27 26 46 1 37 -7 -3 -23 -1 -34 6 -18 9 -30 5 -80 -30 -85 -57 -127 -54 -137 12 -5 30 -13 42 -33 50 -14 6 -32 10 -39 9 -8 -1 -19 2 -25 7 -7 5 -32 4 -59 -1z" fill="#bdf0e6"/>
<path d="M1550 6275 c-32 -33 -35 -41 -34 -89 1 -50 27 -116 45 -116 14 0 39 32 39 49 0 9 5 22 12 29 16 16 48 15 48 -1 0 -15 74 -37 115 -33 48 4 75 23 76 54 0 15 2 37 3 49 4 36 -25 62 -83 73 -80 15 -98 13 -104 -11 -8 -31 -70 -24 -77 9 -5 23 -6 22 -40 -13z m97 -39 c-4 -13 -42 -20 -63 -12 -9 3 -13 10 -10 15 8 13 77 9 73 -3z m2 -42 c9 -8 -15 -22 -44 -26 -25 -2 -31 1 -33 20 -3 22 -1 23 35 16 21 -4 40 -8 42 -10z" fill="#bdf0e6"/>
<path d="M952 6062 c58 -27 64 -68 8 -52 -40 11 -38 1 8 -46 97 -98 130 -121 166 -115 17 3 44 -10 50 -24 3 -8 -1 -27 -9 -42 -8 -15 -15 -24 -15 -20 0 4 -9 3 -19 -3 -11 -5 -22 -6 -25 -2 -2 4 -22 9 -44 10 -29 2 -45 -3 -66 -23 -15 -14 -34 -25 -42 -25 -12 0 -18 -12 -15 -32 0 -3 -20 -14 -44 -24 -25 -9 -45 -21 -45 -25 0 -12 0 -12 51 7 24 8 66 18 94 20 27 3 52 10 56 15 4 7 13 8 25 1 11 -5 34 -14 53 -20 32 -11 36 -9 68 23 19 19 39 35 44 35 12 0 11 27 -1 35 -5 3 -10 1 -10 -4 0 -6 -4 -11 -10 -11 -5 0 -9 10 -8 23 0 12 -4 41 -11 65 -7 24 -9 58 -5 79 5 29 4 34 -7 28 -11 -7 -12 -6 -3 6 6 8 14 25 17 37 5 22 4 23 -12 8 -23 -20 -29 -20 -27 1 0 10 -5 18 -11 19 -7 1 -19 2 -27 3 -8 0 -16 12 -20 25 -5 20 -13 24 -73 30 -38 3 -81 8 -98 11 -28 5 -28 4 7 -13z m258 -356 c0 -3 -4 -8 -10 -11 -5 -3 -10 -1 -10 4 0 6 5 11 10 11 6 0 10 -2 10 -4z" fill="#bdf0e6"/>
<path d="M1482 5997 c-2 -44 3 -71 15 -94 19 -37 29 -39 57 -18 25 19 37 19 30 1 -9 -23 10 -25 35 -4 l25 19 -19 35 c-10 19 -24 33 -31 30 -7 -3 -15 2 -18 10 -3 8 0 14 7 14 7 0 -3 9 -21 20 -18 11 -35 27 -38 35 -4 8 -14 15 -23 15 -13 0 -17 -12 -19 -63z" fill="#bdf0e6"/>
<path d="M1380 5785 c-13 -16 -6 -35 15 -35 12 0 25 21 25 41 0 14 -26 11 -40 -6z" fill="#bdf0e6"/>
<path d="M1005 5643 c-11 -3 -31 -10 -45 -16 -24 -10 -33 -12 -73 -15 -10 -1 -15 -6 -12 -12 3 -5 27 -7 55 -4 41 4 50 3 50 -10 0 -19 33 -21 47 -3 6 6 13 24 17 40 7 28 3 30 -39 20z" fill="#bdf0e6"/>
<path d="M840 5563 c0 -7 43 -42 53 -43 18 0 4 20 -23 34 -16 8 -30 12 -30 9z" fill="#bdf0e6"/>
<path d="M1799 5398 c-10 -36 -7 -46 19 -50 46 -6 60 0 54 27 -4 21 -10 25 -38 25 -19 0 -34 -1 -35 -2z" fill="#bdf0e6"/>
<path d="M890 5370 c-12 -8 -9 -10 13 -10 15 0 27 5 27 10 0 13 -20 13 -40 0z" fill="#bdf0e6"/>
<path d="M1420 5151 c0 -11 5 -23 10 -26 6 -3 10 1 10 9 0 9 0 19 1 23 0 4 -4 9 -10 11 -6 2 -11 -5 -11 -17z" fill="#bdf0e6"/>
<path d="M1276 5001 c-3 -5 1 -11 9 -15 15 -6 29 7 18 18 -9 9 -21 8 -27 -3z" fill="#bdf0e6"/>
<path d="M3244 6605 c-4 -8 -14 -15 -23 -15 -16 0 -41 -18 -41 -29 0 -4 30 -6 68 -6 37 0 80 -2 96 -5 24 -4 30 -1 33 18 3 21 0 23 -24 18 -19 -4 -38 0 -58 14 -36 24 -44 25 -51 5z" fill="#bdf0e6"/>
<path d="M875 5140 c4 -6 11 -8 16 -5 14 9 11 15 -7 15 -8 0 -12 -5 -9 -10z" fill="#bdf0e6"/>
<path d="M1315 4450 c-3 -5 1 -10 9 -10 8 0 18 5 21 10 3 6 -1 10 -9 10 -8 0 -18 -4 -21 -10z" fill="#bdf0e6"/>
<path d="M920 4334 c0 -8 5 -12 10 -9 6 4 8 11 5 16 -9 14 -15 11 -15 -7z" fill="#bdf0e6"/>
<path d="M867 4133 c-10 -3 -17 -11 -15 -19 4 -22 21 -19 30 5 4 12 6 20 5 20 -1 -1 -10 -3 -20 -6z" fill="#bdf0e6"/>
<path d="M1130 4769 c0 -5 5 -7 10 -4 6 3 10 8 10 11 0 2 -4 4 -10 4 -5 0 -10 -5 -10 -11z" fill="#bdf0e6"/>
<path d="M3192 2138 c-20 -92 -21 -105 -8 -149 18 -59 33 -60 32 -2 0 27 3 74 6 105 11 101 -11 134 -30 46z" fill="#bdf0e6"/>
<path d="M2420 1550 c0 -5 4 -10 9 -10 6 0 13 5 16 10 3 6 -1 10 -9 10 -9 0 -16 -4 -16 -10z" fill="#bdf0e6"/>
<path d="M2587 363 c-4 -3 -7 -11 -7 -17 0 -6 5 -5 12 2 6 6 9 14 7 17 -3 3 -9 2 -12 -2z" fill="#bdf0e6"/>
<path d="M4769 7814 c-13 -14 -34 -30 -46 -35 -30 -11 -29 -30 3 -81 24 -37 65 -140 63 -156 -1 -4 -1 -18 0 -31 1 -20 5 -22 29 -16 15 3 35 14 45 23 16 14 19 14 27 2 6 -10 10 46 10 153 l0 167 -53 0 c-45 0 -57 -4 -78 -26z" fill="#bdf0e6"/>
<path d="M2753 6423 c-13 -2 -23 -8 -23 -12 0 -32 110 -72 136 -50 20 16 18 24 -11 43 -28 19 -69 26 -102 19z" fill="#bdf0e6"/>
<path d="M3223 6184 c4 -4 17 -8 30 -10 12 -1 22 -3 22 -4 0 -1 8 -3 18 -5 10 -2 17 2 14 8 -2 7 -23 13 -48 15 -24 2 -40 0 -36 -4z" fill="#bdf0e6"/>
<path d="M3496 6178 c-24 -14 -19 -24 16 -34 17 -5 33 -15 36 -23 3 -9 -2 -11 -18 -6 -12 4 -20 3 -18 -1 2 -5 10 -23 17 -41 l12 -32 41 15 c43 15 68 31 68 44 0 4 -9 17 -20 30 -23 26 -26 40 -8 40 6 0 8 3 5 7 -11 10 -113 11 -131 1z" fill="#bdf0e6"/>
<path d="M2790 6136 c0 -8 3 -22 6 -30 6 -15 8 -15 19 1 7 9 11 23 8 30 -7 18 -33 17 -33 -1z" fill="#bdf0e6"/>
<path d="M3019 6133 c-24 -6 -40 -64 -34 -128 5 -58 17 -85 40 -85 12 0 13 -39 0 -59 -3 -6 -2 -11 4 -11 5 0 17 -7 26 -16 9 -9 19 -14 22 -10 4 3 1 12 -5 18 -7 7 -12 24 -12 38 0 20 8 29 40 42 21 10 43 26 48 35 13 27 0 129 -16 125 -8 -1 -11 2 -7 8 11 18 -15 40 -40 34 -13 -3 -26 -1 -29 5 -7 11 -10 12 -37 4z m111 -93 c8 -5 12 -11 9 -14 -3 -3 -14 1 -25 9 -21 16 -8 20 16 5z" fill="#bdf0e6"/>
<path d="M3170 6073 c0 -12 8 -23 20 -26 11 -3 20 -2 20 2 0 5 -9 16 -20 26 -19 18 -20 17 -20 -2z" fill="#bdf0e6"/>
<path d="M3296 6060 c6 -30 5 -33 -9 -22 -13 11 -15 10 -13 -13 6 -47 29 -46 39 2 3 16 9 37 12 48 6 20 6 20 -6 0 -12 -19 -12 -19 -21 0 -5 13 -6 8 -2 -15z" fill="#bdf0e6"/>
<path d="M2960 5930 c-9 -6 -10 -10 -3 -10 6 0 15 5 18 10 8 12 4 12 -15 0z" fill="#bdf0e6"/>
<path d="M3185 5889 c4 -6 -3 -13 -14 -16 -17 -4 -20 -11 -15 -27 10 -32 20 -39 42 -27 27 15 35 59 11 71 -23 13 -32 13 -24 -1z" fill="#bdf0e6"/>
<path d="M3310 5875 c0 -14 5 -25 11 -25 6 0 8 -7 5 -16 -3 -8 -2 -12 4 -9 6 3 10 1 10 -4 0 -6 7 -11 15 -11 8 0 15 3 15 6 0 12 -24 50 -41 67 -18 17 -19 17 -19 -8z" fill="#bdf0e6"/>
<path d="M2976 5855 c-5 -13 -10 -16 -13 -7 -7 19 -22 14 -16 -6 2 -10 13 -24 25 -31 17 -10 22 -10 33 6 11 15 11 19 0 21 -8 2 -15 11 -17 20 -3 15 -5 14 -12 -3z" fill="#bdf0e6"/>
<path d="M3122 5835 c-11 -13 -10 -15 7 -15 14 0 19 5 15 15 -7 18 -6 18 -22 0z" fill="#bdf0e6"/>
<path d="M3346 5625 c-4 -14 -24 -43 -46 -65 -41 -41 -44 -68 -7 -65 12 1 33 -3 47 -10 44 -22 107 -28 130 -12 11 7 17 17 12 22 -4 4 8 5 26 2 26 -5 32 -3 32 11 0 10 -5 23 -12 30 -8 8 -9 12 -1 12 6 0 9 9 6 20 -3 12 -14 20 -26 20 -20 0 -20 1 3 25 22 24 16 37 -7 14 -7 -7 -26 -6 -64 5 -72 22 -86 20 -93 -9z m134 -51 c0 -10 -33 -33 -47 -34 -6 0 -9 8 -6 20 3 13 14 20 29 20 13 0 24 -3 24 -6z" fill="#bdf0e6"/>
<path d="M2924 5612 c-5 -4 -7 -23 -4 -42 l6 -35 8 39 c8 41 6 49 -10 38z" fill="#bdf0e6"/>
<path d="M3080 5434 c0 -2 13 -10 30 -19 16 -8 40 -26 54 -40 26 -26 46 -32 46 -15 0 6 -7 10 -15 10 -8 0 -19 8 -24 18 -8 16 -91 58 -91 46z" fill="#bdf0e6"/>
<path d="M2439 5254 c-11 -14 -10 -16 9 -12 13 1 23 7 23 13 1 17 -17 16 -32 -1z" fill="#bdf0e6"/>
<path d="M3535 5240 c3 -5 10 -10 16 -10 5 0 9 5 9 10 0 6 -7 10 -16 10 -8 0 -12 -4 -9 -10z" fill="#bdf0e6"/>
<path d="M3440 5039 c7 -11 14 -19 16 -16 7 7 -7 37 -17 37 -6 0 -5 -9 1 -21z" fill="#bdf0e6"/>
<path d="M3463 4993 c-32 -6 -29 -20 10 -39 17 -9 35 -22 39 -28 11 -17 21 1 12 21 -4 10 -8 25 -8 33 -1 16 -18 20 -53 13z" fill="#bdf0e6"/>
<path d="M2698 4563 c7 -3 16 -2 19 1 4 3 -2 6 -13 5 -11 0 -14 -3 -6 -6z" fill="#bdf0e6"/>
<path d="M2690 4535 c7 -8 24 -14 39 -14 17 1 20 3 9 6 -10 2 -18 9 -18 14 0 5 -10 9 -21 9 -18 0 -19 -2 -9 -15z" fill="#bdf0e6"/>
<path d="M2500 4530 c0 -5 5 -10 11 -10 5 0 7 5 4 10 -3 6 -8 10 -11 10 -2 0 -4 -4 -4 -10z" fill="#bdf0e6"/>
<path d="M2566 4501 c-3 -5 0 -13 7 -19 15 -13 42 1 33 17 -9 13 -33 15 -40 2z" fill="#bdf0e6"/>
<path d="M3593 4322 c-24 -2 -43 -7 -43 -11 0 -4 14 -22 30 -39 37 -39 39 -75 5 -106 -14 -13 -25 -25 -25 -28 0 -10 66 -7 93 3 30 13 33 19 15 37 -9 9 -9 18 0 37 10 21 9 25 -4 25 -11 0 -14 5 -10 16 5 13 1 15 -18 10 -35 -9 -44 13 -16 36 28 23 26 24 -27 20z" fill="#bdf0e6"/>
<path d="M4440 4284 c0 -14 4 -23 10 -19 6 3 10 15 10 26 0 10 -4 19 -10 19 -5 0 -10 -12 -10 -26z" fill="#bdf0e6"/>
<path d="M2960 4240 c8 -5 20 -10 25 -10 6 0 3 5 -5 10 -8 5 -19 10 -25 10 -5 0 -3 -5 5 -10z" fill="#bdf0e6"/>
<path d="M3117 4130 c-3 -13 0 -20 9 -20 8 0 14 9 14 20 0 11 -4 20 -9 20 -5 0 -11 -9 -14 -20z" fill="#bdf0e6"/>
<path d="M3745 4140 c-3 -5 1 -10 9 -10 9 0 16 5 16 10 0 6 -4 10 -9 10 -6 0 -13 -4 -16 -10z" fill="#bdf0e6"/>
<path d="M3097 4075 c-4 -8 -2 -17 3 -20 6 -4 10 3 10 14 0 25 -6 27 -13 6z" fill="#bdf0e6"/>
<path d="M3628 4073 c7 -3 16 -2 19 1 4 3 -2 6 -13 5 -11 0 -14 -3 -6 -6z" fill="#bdf0e6"/>
<path d="M974 3326 c-3 -13 -4 -38 -2 -57 l4 -34 21 45 c16 32 19 48 11 57 -16 19 -27 16 -34 -11z" fill="#bdf0e6"/>
<path d="M996 3211 c-3 -5 -24 -7 -46 -4 l-40 6 0 -35 c0 -39 21 -64 46 -54 11 4 24 -1 36 -14 26 -28 42 -25 72 11 22 25 31 30 55 24 27 -6 61 13 61 35 0 12 -36 19 -51 10 -7 -5 -23 -4 -37 1 -13 5 -28 7 -33 4 -4 -3 -19 1 -33 10 -14 10 -27 12 -30 6z" fill="#bdf0e6"/>
<path d="M595 3081 c-29 -7 -29 -7 -9 -19 40 -22 113 -33 136 -21 l21 11 -24 19 c-24 19 -68 22 -124 10z" fill="#bdf0e6"/>
<path d="M879 3073 c-8 -9 -27 -22 -44 -29 -17 -7 -23 -13 -13 -14 9 0 30 -13 46 -30 l30 -29 26 20 27 21 -26 26 c-14 14 -24 31 -21 39 7 18 -9 16 -25 -4z" fill="#bdf0e6"/>
<path d="M1206 3008 c-9 -12 -16 -28 -16 -34 0 -16 53 -36 86 -32 23 2 28 7 26 23 -10 61 -66 86 -96 43z" fill="#bdf0e6"/>
<path d="M1072 2997 c21 -40 51 -50 46 -15 -2 14 -13 24 -30 29 -26 7 -27 6 -16 -14z" fill="#bdf0e6"/>
<path d="M3748 3004 c-5 -4 -8 -19 -8 -33 1 -23 2 -24 11 -8 11 19 9 53 -3 41z" fill="#bdf0e6"/>
<path d="M834 2873 c-26 -62 -27 -95 -5 -156 20 -57 20 -58 1 -77 -19 -19 -19 -20 14 -45 18 -14 38 -25 43 -25 19 0 25 49 8 73 -8 12 -15 29 -15 37 0 27 42 59 88 66 56 9 54 29 -5 55 -60 26 -93 56 -93 86 0 35 -18 28 -36 -14z" fill="#bdf0e6"/>
<path d="M690 2708 c0 -9 -7 -18 -15 -22 -25 -9 -18 -45 9 -52 33 -8 44 0 40 32 -3 32 -34 70 -34 42z" fill="#bdf0e6"/>
<path d="M505 2683 c-48 -12 -55 -43 -10 -43 27 0 75 19 75 31 0 7 -27 20 -38 18 -4 -1 -16 -4 -27 -6z" fill="#bdf0e6"/>
<path d="M978 2664 c-15 -8 -32 -23 -38 -33 -8 -16 -4 -24 21 -45 29 -24 30 -28 19 -60 -6 -19 -19 -36 -30 -39 -11 -3 -22 -13 -26 -24 -3 -10 -13 -39 -23 -64 l-18 -46 36 -40 c24 -26 51 -45 81 -53 25 -8 59 -26 76 -41 46 -38 144 -51 144 -18 0 21 -107 119 -129 119 -36 0 -59 18 -69 53 -15 55 -4 96 35 120 27 18 33 27 29 47 -3 14 -9 47 -14 74 -13 66 -39 81 -94 50z" fill="#bdf0e6"/>
<path d="M1153 2525 c-8 -23 24 -54 64 -61 52 -10 62 9 25 45 -33 34 -79 41 -89 16z" fill="#bdf0e6"/>
<path d="M651 2419 c-23 -9 -24 -12 -19 -94 5 -76 4 -85 -13 -90 -27 -9 -97 -92 -126 -150 -14 -27 -35 -63 -46 -78 -28 -41 -14 -91 27 -94 16 -1 35 -4 42 -7 7 -3 20 1 28 9 18 19 80 20 73 3 -2 -7 -10 -12 -16 -10 -7 1 -27 -5 -46 -14 -39 -18 -69 -72 -69 -126 -1 -22 -6 -38 -13 -38 -6 0 -20 -11 -30 -25 -23 -32 -57 -39 -94 -20 -54 28 -76 20 -103 -37 l-26 -53 21 -16 c16 -12 20 -22 14 -39 -6 -20 -5 -22 11 -16 11 4 4 -6 -14 -21 -19 -15 -47 -41 -63 -56 -15 -16 -33 -26 -38 -23 -5 4 -16 -1 -25 -10 -9 -8 -28 -14 -43 -12 -21 2 -29 9 -31 28 -4 43 -33 130 -43 130 -5 0 -9 -236 -9 -572 1 -455 3 -569 13 -552 7 12 27 35 45 50 66 56 249 239 266 266 16 24 16 31 5 57 -26 59 -86 66 -167 20 -50 -28 -56 -29 -71 -15 -14 15 -14 19 -1 43 8 15 35 37 59 50 58 31 71 42 71 64 0 11 4 19 8 19 5 0 15 11 22 25 10 20 21 25 50 25 19 0 56 10 80 23 51 26 69 67 50 120 -6 19 -7 34 -1 40 8 8 87 6 121 -4 12 -3 15 7 16 46 1 74 16 103 57 110 21 4 43 18 55 34 l20 28 -22 28 c-18 23 -26 26 -42 17 -10 -6 -41 -14 -69 -19 -44 -7 -50 -11 -51 -33 -2 -44 -4 -48 -26 -53 -31 -8 -38 -1 -28 32 6 22 2 40 -19 81 -23 45 -24 53 -11 63 11 9 15 28 14 70 0 32 4 61 9 64 6 4 41 6 78 5 67 -1 69 0 98 37 16 20 33 49 36 64 4 15 13 27 21 27 8 0 11 6 8 15 -4 8 -11 12 -17 8 -6 -3 -7 -1 -3 6 4 6 2 19 -5 27 -6 8 -9 17 -5 21 8 9 56 -37 56 -54 0 -34 92 -38 120 -5 8 9 27 17 42 16 24 -1 25 1 15 23 -5 12 -14 23 -18 23 -5 0 -15 14 -24 30 -9 17 -21 30 -28 30 -13 0 -77 95 -77 115 0 15 31 25 83 25 46 0 53 14 31 66 -19 46 -29 54 -71 54 -75 0 -83 31 -23 83 22 19 40 41 40 49 0 26 -50 68 -81 68 -15 0 -33 2 -41 4 -7 3 -24 0 -37 -5z m11 -342 c6 -33 -23 -68 -45 -55 -20 11 -23 64 -4 71 28 12 45 6 49 -16z m-262 -722 c0 -8 -6 -15 -14 -15 -20 0 -29 17 -14 23 22 9 28 7 28 -8z m-130 -150 c-7 -9 -15 -13 -17 -11 -6 6 20 36 26 30 2 -2 -2 -10 -9 -19z" fill="#bdf0e6"/>
<path d="M360 2390 c-24 -44 21 -120 71 -120 25 0 24 18 -5 60 -13 20 -25 44 -27 54 -6 28 -26 31 -39 6z" fill="#bdf0e6"/>
<path d="M4721 2154 c0 -11 3 -14 6 -6 3 7 2 16 -1 19 -3 4 -6 -2 -5 -13z" fill="#bdf0e6"/>
<path d="M4715 2120 c3 -5 8 -10 11 -10 2 0 4 5 4 10 0 6 -5 10 -11 10 -5 0 -7 -4 -4 -10z" fill="#bdf0e6"/>
<path d="M3925 2100 c28 -12 37 -12 30 0 -3 6 -16 10 -28 9 -21 0 -21 -1 -2 -9z" fill="#bdf0e6"/>
<path d="M86 1903 c-3 -4 -6 -21 -6 -38 0 -36 31 -71 54 -62 15 6 12 27 -9 79 -7 18 -30 30 -39 21z" fill="#bdf0e6"/>
<path d="M935 1830 c-3 -5 1 -10 10 -10 9 0 13 5 10 10 -3 6 -8 10 -10 10 -2 0 -7 -4 -10 -10z" fill="#bdf0e6"/>
<path d="M4453 1283 c-17 -6 -17 -53 0 -53 10 0 45 19 67 37 7 6 -23 23 -40 22 -8 0 -21 -3 -27 -6z" fill="#bdf0e6"/>
<path d="M4541 1253 c-6 -13 -7 -23 -1 -23 11 0 90 -81 90 -92 0 -15 44 -27 52 -15 6 11 11 3 24 -40 2 -9 27 -13 81 -12 43 0 72 3 66 6 -7 2 -13 10 -13 17 0 7 -11 19 -25 26 -13 7 -22 17 -19 22 3 4 -2 8 -10 8 -9 0 -16 4 -16 9 0 19 -92 96 -123 104 -67 18 -95 15 -106 -10z" fill="#bdf0e6"/>
<path d="M1065 1160 c-3 -5 -1 -10 4 -10 6 0 11 5 11 10 0 6 -2 10 -4 10 -3 0 -8 -4 -11 -10z" fill="#bdf0e6"/>
<path d="M1037 1114 c-4 -4 -7 -16 -7 -26 0 -10 -6 -18 -13 -18 -13 0 -43 -65 -40 -88 0 -8 -12 -45 -28 -84 -16 -39 -26 -74 -23 -80 3 -5 1 -15 -6 -23 -6 -7 -13 -30 -16 -51 -3 -20 -11 -51 -18 -68 -22 -49 -46 -123 -71 -221 -13 -49 -30 -110 -39 -135 -9 -25 -16 -53 -16 -62 0 -10 -8 -22 -18 -27 -10 -5 -24 -28 -32 -50 -7 -22 -21 -49 -31 -60 -15 -16 -17 -29 -12 -70 6 -49 7 -51 37 -51 25 0 34 6 43 28 12 29 26 80 28 97 1 17 26 98 36 117 5 10 9 23 9 28 0 6 13 28 29 48 18 23 32 53 34 78 3 23 9 50 15 60 11 21 36 184 34 225 0 15 8 36 19 47 10 12 19 26 19 33 0 6 12 44 26 83 37 103 65 231 56 256 -4 12 -11 18 -15 14z m-117 -444 c0 -5 -2 -10 -4 -10 -3 0 -8 5 -11 10 -3 6 -1 10 4 10 6 0 11 -4 11 -10z" fill="#bdf0e6"/>
<path d="M3575 990 c3 -5 8 -10 11 -10 2 0 4 5 4 10 0 6 -5 10 -11 10 -5 0 -7 -4 -4 -10z" fill="#bdf0e6"/>
<path d="M1440 650 c0 -5 6 -10 14 -10 8 0 18 5 21 10 3 6 -3 10 -14 10 -12 0 -21 -4 -21 -10z" fill="#bdf0e6"/>
<path d="M1310 621 c0 -6 5 -13 10 -16 6 -3 10 1 10 9 0 9 -4 16 -10 16 -5 0 -10 -4 -10 -9z" fill="#bdf0e6"/>
<path d="M1010 590 c0 -5 5 -10 11 -10 5 0 7 5 4 10 -3 6 -8 10 -11 10 -2 0 -4 -4 -4 -10z" fill="#bdf0e6"/>
<path d="M1115 539 c-10 -15 1 -23 20 -15 9 3 13 10 10 16 -8 13 -22 13 -30 -1z" fill="#bdf0e6"/>
<path d="M987 533 c-4 -3 -7 -17 -7 -30 0 -13 -7 -26 -15 -29 -16 -7 -21 -34 -6 -34 5 0 14 6 21 14 6 8 17 13 23 11 7 -3 23 4 36 14 29 22 23 56 -9 48 -11 -3 -20 -1 -20 4 0 11 -14 12 -23 2z" fill="#bdf0e6"/>
<path d="M4875 530 c-4 -6 -2 -16 3 -23 5 -7 12 -21 15 -32 2 -11 5 -1 6 23 1 40 -10 54 -24 32z" fill="#bdf0e6"/>
<path d="M4462 464 c2 -11 25 -22 71 -33 37 -10 67 -15 67 -12 -1 8 -115 61 -130 61 -6 0 -10 -7 -8 -16z" fill="#bdf0e6"/>
<path d="M1625 440 c-46 -4 -88 -15 -122 -33 -50 -25 -126 -44 -206 -53 -21 -2 -43 -6 -48 -10 -5 -3 -17 0 -26 7 -13 11 -18 10 -33 -9 -18 -22 -37 -31 -25 -12 7 12 -24 13 -42 2 -6 -4 -13 -16 -15 -27 -1 -11 -11 -29 -21 -40 -14 -15 -16 -29 -12 -57 5 -25 3 -38 -4 -38 -6 0 -11 -6 -11 -14 0 -8 -11 -23 -25 -34 -30 -24 -55 -69 -55 -99 l0 -23 190 0 c173 0 191 2 197 18 3 9 20 31 37 47 17 17 40 47 50 68 11 20 23 37 27 37 5 0 6 13 3 29 -4 20 -2 30 10 34 9 4 16 14 16 24 1 19 43 73 58 73 17 0 62 41 57 51 -4 5 3 9 15 9 12 0 28 6 36 14 7 8 19 16 26 19 9 3 10 8 3 14 -5 5 -41 6 -80 3z" fill="#bdf0e6"/>
<path d="M1090 366 c0 -9 7 -16 16 -16 9 0 14 5 12 12 -6 18 -28 21 -28 4z" fill="#bdf0e6"/>
<path d="M13 23 c-27 -10 -11 -23 27 -23 40 0 53 13 24 24 -18 7 -33 7 -51 -1z" fill="#bdf0e6"/>
</g>
</svg>